<svg width="20.192383" height="20.000000" viewBox="0 0 20.1924 20" fill="none" xmlns="http://www.w3.org/2000/svg" xmlns:xlink="http://www.w3.org/1999/xlink">
	<desc>
			Created with Pixso.
	</desc>
	<defs/>
	<path id="Vector" d="M17 0C17.55 0 18 0.44 18 1L18 4.75L9 13.75L8.99 17.99L13.24 18L18 13.24L18 19C18 19.55 17.55 20 17 20L1 20C0.44 20 0 19.55 0 19L0 1C0 0.44 0.44 0 1 0L17 0ZM18.77 6.8L20.19 8.22L12.41 16L10.99 15.99L11 14.58L18.77 6.8ZM9 10L4 10L4 12L9 12L9 10ZM12 6L4 6L4 8L12 8L12 6Z" fill="white" fill-opacity="1.000000" fill-rule="nonzero"/>
</svg>
 