<svg width="48.000000" height="48.000000" viewBox="0 0 48 48" fill="none" xmlns="http://www.w3.org/2000/svg" xmlns:xlink="http://www.w3.org/1999/xlink">
	<desc>
			Created with Pixso.
	</desc>
	<defs>
		<clipPath id="clip454_43439">
			<rect id="svgexport-4 (3)" rx="0.000000" width="47.000000" height="47.000000" transform="translate(0.500000 0.500000)" fill="white" fill-opacity="0"/>
		</clipPath>
	</defs>
	<rect id="svgexport-4 (3)" rx="0.000000" width="47.000000" height="47.000000" transform="translate(0.500000 0.500000)" fill="#FFFFFF" fill-opacity="0"/>
	<g clip-path="url(#clip454_43439)">
		<path id="Vector" d="M5.99 2C3.81 2 1.99 3.81 1.99 6L1.99 10L1.99 12L5.99 12L5.99 10L5.99 6L9.99 6L11.99 6L11.99 2L9.99 2L5.99 2ZM35.99 2L35.99 6L37.99 6L41.99 6L41.99 10L41.99 12L45.99 12L45.99 10L45.99 6C45.99 3.81 44.18 2 41.99 2L37.99 2L35.99 2ZM23.99 8C7.99 8 1.99 24 1.99 24C1.99 24 7.99 40 23.99 40C39.99 40 45.99 24 45.99 24C45.99 24 39.99 8 23.99 8ZM23.99 12C34.55 12 39.88 20.53 41.61 23.99C39.88 27.42 34.5 36 23.99 36C13.44 36 8.11 27.46 6.38 24C8.11 20.57 13.48 12 23.99 12ZM23.99 16C19.58 16 15.99 19.58 15.99 24C15.99 28.41 19.58 32 23.99 32C28.41 32 31.99 28.41 31.99 24C31.99 19.58 28.41 16 23.99 16ZM23.99 20C26.2 20 27.99 21.79 27.99 24C27.99 26.21 26.2 28 23.99 28C21.78 28 19.99 26.21 19.99 24C19.99 21.79 21.78 20 23.99 20ZM1.99 36L1.99 38L1.99 42C1.99 44.18 3.81 46 5.99 46L9.99 46L11.99 46L11.99 42L9.99 42L5.99 42L5.99 38L5.99 36L1.99 36ZM41.99 36L41.99 38L41.99 42L37.99 42L35.99 42L35.99 46L37.99 46L41.99 46C44.18 46 45.99 44.18 45.99 42L45.99 38L45.99 36L41.99 36Z" fill="#2376FB" fill-opacity="1.000000" fill-rule="nonzero"/>
	</g>
</svg>
