<svg width="39.963379" height="39.962402" viewBox="0 0 39.9634 39.9624" fill="none" xmlns="http://www.w3.org/2000/svg" xmlns:xlink="http://www.w3.org/1999/xlink">
	<desc>
			Created with Pixso.
	</desc>
	<defs/>
	<path id="Vector" d="M36.69 0.02C36.41 -0.01 36.12 -0.01 35.83 0.03C31.49 0.64 21.4 2.3 11.39 13.99L6.11 13.99L0.76 19.56C0.01 20.31 -0.21 21.42 0.19 22.39C0.6 23.37 1.54 23.99 2.59 23.99L7.13 23.99L7.34 24.2C6.79 24.89 6.48 25.62 6.17 26.42C5.8 27.39 5.49 28.46 5.23 29.46C4.71 31.46 4.4 33.24 4.4 33.24L3.9 36.05L6.71 35.56C6.71 35.56 8.49 35.25 10.49 34.73C11.5 34.47 12.56 34.15 13.53 33.78C14.33 33.47 15.06 33.16 15.75 32.61L15.96 32.82L15.96 37.36C15.96 38.41 16.59 39.36 17.56 39.76C17.89 39.9 18.24 39.96 18.57 39.96C19.24 39.96 19.87 39.71 20.32 39.26L25.96 34.13L25.96 28.56C37.65 18.55 39.31 8.46 39.92 4.12C40.21 2.08 38.65 0.23 36.69 0.02ZM35.87 4.09C35.15 9.17 33.54 19.16 18.21 29.41L10.54 21.74C20.8 6.41 30.78 4.8 35.87 4.09ZM25.96 11.99C25.43 11.99 24.92 12.2 24.55 12.58C24.17 12.95 23.96 13.46 23.96 13.99C23.96 14.52 24.17 15.03 24.55 15.41C24.92 15.78 25.43 15.99 25.96 15.99C26.49 15.99 27 15.78 27.37 15.41C27.75 15.03 27.96 14.52 27.96 13.99C27.96 13.46 27.75 12.95 27.37 12.58C27 12.2 26.49 11.99 25.96 11.99ZM19.96 17.99C19.43 17.99 18.92 18.2 18.55 18.58C18.17 18.95 17.96 19.46 17.96 19.99C17.96 20.52 18.17 21.03 18.55 21.41C18.92 21.78 19.43 21.99 19.96 21.99C20.49 21.99 21 21.78 21.37 21.41C21.75 21.03 21.96 20.52 21.96 19.99C21.96 19.46 21.75 18.95 21.37 18.58C21 18.2 20.49 17.99 19.96 17.99ZM10.26 27.12L12.83 29.7C12.62 29.81 12.39 29.93 12.09 30.05C11.34 30.34 10.4 30.62 9.49 30.85C9.23 30.92 9.24 30.9 8.99 30.96C9.05 30.71 9.03 30.73 9.1 30.47C9.34 29.56 9.62 28.61 9.9 27.86C10.02 27.56 10.14 27.33 10.26 27.12Z" fill="#2376FB" fill-opacity="1.000000" fill-rule="nonzero"/>
</svg>
