<svg width="35.000000" height="35.000000" viewBox="0 0 35 35" fill="none" xmlns="http://www.w3.org/2000/svg" xmlns:xlink="http://www.w3.org/1999/xlink">
	<desc>
			Created with Pixso.
	</desc>
	<defs>
		<clipPath id="clip12313_24326">
			<rect id="books-solid 1" rx="0.000000" width="34.000000" height="34.000000" transform="translate(0.500000 0.500000)" fill="white" fill-opacity="0"/>
		</clipPath>
	</defs>
	<rect id="books-solid 1" rx="0.000000" width="34.000000" height="34.000000" transform="translate(0.500000 0.500000)" fill="#FFFFFF" fill-opacity="0"/>
	<g clip-path="url(#clip12313_24326)">
		<path id="Vector" d="M0 2.18C0 0.97 0.97 0 2.18 0L6.56 0C7.77 0 8.75 0.97 8.75 2.18L8.75 6.56L0 6.56L0 2.18ZM0 8.75L8.75 8.75L8.75 26.25L0 26.25L0 8.75ZM0 28.43L8.75 28.43L8.75 32.81C8.75 34.02 7.77 35 6.56 35L2.18 35C0.97 35 0 34.02 0 32.81L0 28.43ZM10.93 2.18C10.93 0.97 11.91 0 13.12 0L17.5 0C18.7 0 19.68 0.97 19.68 2.18L19.68 6.56L10.93 6.56L10.93 2.18ZM10.93 8.75L19.68 8.75L19.68 26.25L10.93 26.25L10.93 8.75ZM10.93 28.43L19.68 28.43L19.68 32.81C19.68 34.02 18.7 35 17.5 35L13.12 35C11.91 35 10.93 34.02 10.93 32.81L10.93 28.43ZM24.85 27.07L21.87 15.9L21.87 9.75L28.73 7.91L33.25 24.82L24.85 27.07ZM28.17 5.81L21.87 7.49L21.87 0.75L24.39 0.07C25.55 -0.24 26.74 0.45 27.05 1.62L28.17 5.81ZM25.41 29.19L33.81 26.94L34.92 31.11C35.23 32.28 34.54 33.47 33.38 33.79L29.18 34.91C28.03 35.23 26.83 34.54 26.53 33.37L25.41 29.19Z" fill="#636363" fill-opacity="1.000000" fill-rule="nonzero"/>
	</g>
</svg>
