<svg width="35.000000" height="35.000000" viewBox="0 0 35 35" fill="none" xmlns="http://www.w3.org/2000/svg" xmlns:xlink="http://www.w3.org/1999/xlink">
	<desc>
			Created with Pixso.
	</desc>
	<defs>
		<clipPath id="clip12315_24334">
			<rect id="calendar-days-solid 1" rx="0.000000" width="34.000000" height="34.000000" transform="translate(0.500000 0.500000)" fill="white" fill-opacity="0"/>
		</clipPath>
	</defs>
	<rect id="calendar-days-solid 1" rx="0.000000" width="34.000000" height="34.000000" transform="translate(0.500000 0.500000)" fill="#FFFFFF" fill-opacity="0"/>
	<g clip-path="url(#clip12315_24334)">
		<path id="Vector" d="M10 0C11.38 0 12.5 0.97 12.5 2.18L12.5 4.37L22.5 4.37L22.5 2.18C22.5 0.97 23.61 0 25 0C26.38 0 27.5 0.97 27.5 2.18L27.5 4.37L31.25 4.37C33.32 4.37 35 5.84 35 7.65L35 10.93L0 10.93L0 7.65C0 5.84 1.67 4.37 3.75 4.37L7.5 4.37L7.5 2.18C7.5 0.97 8.61 0 10 0ZM0 13.12L35 13.12L35 31.71C35 33.53 33.32 35 31.25 35L3.75 35C1.67 35 0 33.53 0 31.71L0 13.12ZM5 18.59L5 20.78C5 21.38 5.56 21.87 6.25 21.87L8.75 21.87C9.43 21.87 10 21.38 10 20.78L10 18.59C10 17.99 9.43 17.5 8.75 17.5L6.25 17.5C5.56 17.5 5 17.99 5 18.59ZM15 18.59L15 20.78C15 21.38 15.56 21.87 16.25 21.87L18.75 21.87C19.43 21.87 20 21.38 20 20.78L20 18.59C20 17.99 19.43 17.5 18.75 17.5L16.25 17.5C15.56 17.5 15 17.99 15 18.59ZM26.25 17.5C25.56 17.5 25 17.99 25 18.59L25 20.78C25 21.38 25.56 21.87 26.25 21.87L28.75 21.87C29.43 21.87 30 21.38 30 20.78L30 18.59C30 17.99 29.43 17.5 28.75 17.5L26.25 17.5ZM5 27.34L5 29.53C5 30.13 5.56 30.62 6.25 30.62L8.75 30.62C9.43 30.62 10 30.13 10 29.53L10 27.34C10 26.74 9.43 26.25 8.75 26.25L6.25 26.25C5.56 26.25 5 26.74 5 27.34ZM16.25 26.25C15.56 26.25 15 26.74 15 27.34L15 29.53C15 30.13 15.56 30.62 16.25 30.62L18.75 30.62C19.43 30.62 20 30.13 20 29.53L20 27.34C20 26.74 19.43 26.25 18.75 26.25L16.25 26.25ZM25 27.34L25 29.53C25 30.13 25.56 30.62 26.25 30.62L28.75 30.62C29.43 30.62 30 30.13 30 29.53L30 27.34C30 26.74 29.43 26.25 28.75 26.25L26.25 26.25C25.56 26.25 25 26.74 25 27.34Z" fill="#636363" fill-opacity="1.000000" fill-rule="nonzero"/>
	</g>
</svg>
