<svg width="35.000000" height="35.000000" viewBox="0 0 35 35" fill="none" xmlns="http://www.w3.org/2000/svg" xmlns:xlink="http://www.w3.org/1999/xlink">
	<desc>
			Created with Pixso.
	</desc>
	<defs>
		<clipPath id="clip12313_24330">
			<rect id="computer-classic-solid 1" rx="0.000000" width="34.000000" height="34.000000" transform="translate(0.500000 0.500000)" fill="white" fill-opacity="0"/>
		</clipPath>
	</defs>
	<rect id="computer-classic-solid 1" rx="0.000000" width="34.000000" height="34.000000" transform="translate(0.500000 0.500000)" fill="#FFFFFF" fill-opacity="0"/>
	<g clip-path="url(#clip12313_24330)">
		<path id="Vector" d="M0 3.28C0 1.46 1.67 0 3.75 0L31.25 0C33.32 0 35 1.46 35 3.28L35 25.15C35 26.96 33.32 28.43 31.25 28.43L3.75 28.43C1.67 28.43 0 26.96 0 25.15L0 3.28ZM2.5 32.81L2.5 30.62L32.5 30.62L32.5 32.81C32.5 34.02 31.38 35 30 35L5 35C3.61 35 2.5 34.02 2.5 32.81ZM7.5 4.37C6.11 4.37 5 5.35 5 6.56L5 15.31C5 16.52 6.11 17.5 7.5 17.5L27.5 17.5C28.88 17.5 30 16.52 30 15.31L30 6.56C30 5.35 28.88 4.37 27.5 4.37L7.5 4.37ZM6.25 24.6C6.74 24.6 7.22 24.43 7.57 24.12C7.92 23.82 8.12 23.4 8.12 22.96C8.12 22.53 7.92 22.11 7.57 21.8C7.22 21.5 6.74 21.32 6.25 21.32C5.75 21.32 5.27 21.5 4.92 21.8C4.57 22.11 4.37 22.53 4.37 22.96C4.37 23.4 4.57 23.82 4.92 24.12C5.27 24.43 5.75 24.6 6.25 24.6ZM17.5 22.96C17.5 23.57 18.06 24.06 18.75 24.06L28.75 24.06C29.43 24.06 30 23.57 30 22.96C30 22.36 29.43 21.87 28.75 21.87L18.75 21.87C18.06 21.87 17.5 22.36 17.5 22.96Z" fill="#636363" fill-opacity="1.000000" fill-rule="nonzero"/>
	</g>
</svg>
