<svg width="35.000000" height="35.000000" viewBox="0 0 35 35" fill="none" xmlns="http://www.w3.org/2000/svg" xmlns:xlink="http://www.w3.org/1999/xlink">
	<desc>
			Created with Pixso.
	</desc>
	<defs>
		<clipPath id="clip12313_24324">
			<rect id="user-graduate-solid 1" rx="0.000000" width="34.000000" height="34.000000" transform="translate(0.500000 0.500000)" fill="white" fill-opacity="0"/>
		</clipPath>
	</defs>
	<rect id="user-graduate-solid 1" rx="0.000000" width="34.000000" height="34.000000" transform="translate(0.500000 0.500000)" fill="#FFFFFF" fill-opacity="0"/>
	<g clip-path="url(#clip12313_24324)">
		<path id="Vector" d="M17.13 0.03C17.37 -0.01 17.62 -0.01 17.86 0.03L33.49 2.76C34.36 2.91 34.99 3.59 34.99 4.37C34.99 5.15 34.36 5.83 33.49 5.98L27.49 7.03L27.49 10.93C27.49 15.77 23.02 19.68 17.49 19.68C11.97 19.68 7.49 15.77 7.49 10.93L7.49 7.03L3.74 6.37L3.74 10.82L4.97 16.18C5.04 16.5 4.95 16.84 4.71 17.09C4.48 17.34 4.12 17.5 3.74 17.5L1.24 17.5C0.87 17.5 0.52 17.35 0.28 17.09C0.03 16.83 -0.06 16.5 0.02 16.18L1.24 10.82L1.24 5.91C0.5 5.69 -0.01 5.07 -0.01 4.37C-0.01 3.59 0.63 2.91 1.5 2.76L17.13 0.03ZM8.74 22.4C9.56 22.16 10.44 22.42 11.03 22.98L16.58 28.14C17.07 28.6 17.91 28.6 18.4 28.14L23.95 22.98C24.54 22.42 25.42 22.16 26.24 22.4C31.32 23.83 34.99 27.98 34.99 32.9C34.99 34.06 33.92 35 32.6 35L2.39 35C1.07 35 -0.01 34.05 -0.01 32.9C-0.01 27.98 3.67 23.83 8.74 22.4Z" fill="#636363" fill-opacity="1.000000" fill-rule="nonzero"/>
	</g>
</svg>
