<svg width="692" height="146" viewBox="0 0 692 146" fill="none" xmlns="http://www.w3.org/2000/svg">
<path fill-rule="evenodd" clip-rule="evenodd" d="M94.1047 19.5621C98.0028 18.1727 100.793 14.4482 100.793 10.0719C100.793 4.50933 96.2853 0 90.7245 0C85.1638 0 80.6559 4.50933 80.6559 10.0719C80.6559 14.536 83.5592 18.3218 87.5801 19.6428V29.2306C87.5801 33.6734 80.607 38.605 80.607 38.605C80.607 38.605 75.2477 42.973 72.9678 44.9126C71.9789 43.8936 67.5451 40.1971 67.5451 40.1971C67.5451 40.1971 63.4186 37.0944 60.6205 33.2736C58.4393 30.295 58.288 23.2323 58.494 19.8228C62.8295 18.6997 66.0313 14.7598 66.0313 10.0719C66.0313 4.50935 61.5234 2.2392e-05 55.9626 2.2392e-05C50.4019 2.2392e-05 45.894 4.50935 45.894 10.0719C45.894 14.63 48.9208 18.4809 53.0736 19.723V30.3912C53.0736 35.7822 56.9171 39.0262 62.9235 44.0957L62.9265 44.0983C63.2419 44.3645 63.5633 44.6357 63.8904 44.9126C69.1366 49.3531 70.1869 52.4443 70.0562 53.4348V66.6094C66.3117 64.4979 61.0516 61.4886 57.911 59.5478C52.8375 56.4125 52.4302 46.4546 52.4302 46.4546C52.4302 46.4546 51.893 39.6043 50.0785 36.3504C48.6271 33.7476 40.9954 29.309 37.3593 27.4141C38.1045 23.3431 36.2753 19.0646 32.487 16.8768C27.6713 14.0955 21.5134 15.7461 18.733 20.5634C15.9527 25.3807 17.6027 31.5405 22.4184 34.3218C26.2824 36.5534 31.0105 35.9318 34.1646 33.1105L42.4637 37.9035C46.3101 40.125 47.0931 48.6316 47.0931 48.6316C47.0931 48.6316 48.1949 55.4584 48.7342 58.4033C47.3576 58.7504 41.9404 60.7432 41.9404 60.7432C41.9404 60.7432 37.1911 62.7666 32.4841 63.2802C28.8155 63.6805 22.6269 60.2816 19.7774 58.3981C20.9737 54.0804 19.1636 49.3359 15.1046 46.9917C10.2889 44.2105 4.131 45.861 1.35062 50.6783C-1.42975 55.4956 0.220245 61.6554 5.036 64.4367C8.98175 66.7155 13.8285 66.0192 16.9802 63.0435L26.2153 68.377C30.8824 71.0725 35.6127 69.3648 43.0048 66.6962C43.3942 66.5557 43.791 66.4124 44.1955 66.267C50.663 63.9425 53.8643 64.5782 54.6565 65.1866L66.9966 72.3135C63.3307 74.5129 58.2927 77.4926 55.1342 79.2211C49.9024 82.0843 41.0465 77.5184 41.0465 77.5184C41.0465 77.5184 34.8273 74.6008 31.1027 74.5711C28.123 74.5473 20.4926 78.9927 17.0499 81.2183L17.0509 81.22C13.8809 78.5609 9.25884 78.038 5.48581 80.2514C0.689072 83.0653 -0.919026 89.2363 1.89402 94.0345C4.70707 98.8328 10.876 100.441 15.6728 97.6275C19.5224 95.3691 21.3183 90.9486 20.4232 86.8107L28.6901 81.961C32.5213 79.7135 40.3015 83.2356 40.3015 83.2356C40.3015 83.2356 46.7793 85.6505 49.6052 86.6366C49.2268 88.0053 48.2821 93.7011 48.2821 93.7011C48.2821 93.7011 47.6941 98.8314 45.8147 103.179C44.3496 106.568 38.335 110.272 35.2908 111.818C32.1292 108.646 27.1121 107.876 23.0696 110.248C18.2729 113.062 16.6648 119.232 19.4779 124.031C22.2909 128.829 28.4599 130.438 33.2566 127.624C37.1872 125.318 38.9768 120.758 37.947 116.546L47.147 111.149C51.7958 108.422 52.6488 103.464 53.982 95.7169C54.0522 95.3088 54.1237 94.8929 54.1973 94.4693C55.3725 87.6961 57.5068 85.2261 58.427 84.8377L70.0186 78.0377V92.0916C70.1492 93.0821 69.0989 96.1732 63.8527 100.614C63.5321 100.885 63.2169 101.151 62.9075 101.412L62.888 101.429L62.8858 101.431C56.8794 106.5 53.0359 109.744 53.0359 115.135V125.803C48.8831 127.045 45.8561 130.896 45.8561 135.454C45.8561 141.017 50.364 145.526 55.9247 145.526C61.4855 145.526 65.9934 141.017 65.9934 135.454C65.9934 130.767 62.7917 126.827 58.4563 125.704C58.2503 122.294 58.4016 115.231 60.5829 112.253C63.381 108.432 67.5075 105.329 67.5075 105.329C67.5075 105.329 71.9413 101.633 72.9301 100.614C75.21 102.553 80.5694 106.921 80.5694 106.921C80.5694 106.921 87.5424 111.853 87.5424 116.296V125.884C83.5217 127.205 80.6185 130.991 80.6185 135.455C80.6185 141.017 85.1264 145.526 90.6872 145.526C96.2479 145.526 100.756 141.017 100.756 135.455C100.756 131.078 97.9654 127.354 94.0672 125.964H94.0714C94.249 121.868 94.2224 113.035 92.6945 110.476C90.7847 107.277 85.1226 103.386 85.1226 103.386C85.1226 103.386 76.7053 98.0544 76.5277 92.0916C76.4182 88.4192 76.4422 82.4003 76.486 78.1048C80.1923 80.2244 85.2217 83.143 88.2595 85.0437C93.3156 88.2071 93.6678 98.1671 93.6678 98.1671C93.6678 98.1671 94.1669 105.02 95.9633 108.284C97.4005 110.895 105.01 115.377 108.634 117.292L108.637 117.288C107.867 121.356 109.673 125.646 113.45 127.855C118.25 130.663 124.417 129.047 127.224 124.245C130.031 119.443 128.415 113.274 123.615 110.467C119.763 108.213 115.031 108.809 111.861 111.614L103.587 106.773C99.7526 104.531 99.0168 96.0198 99.0168 96.0198C99.0168 96.0198 97.9528 89.187 97.4299 86.2391C98.8084 85.8996 104.237 83.9369 104.237 83.9369C104.237 83.9369 108.997 81.9398 113.707 81.4524C117.378 81.0724 123.55 84.5072 126.388 86.4062C125.169 90.717 126.952 95.4708 130.998 97.8373C135.798 100.645 141.965 99.0289 144.772 94.2271C147.579 89.4253 145.963 83.2564 141.163 80.4485C137.23 78.1477 132.379 78.8174 129.211 81.776L120.004 76.3904C115.352 73.6691 110.612 75.3505 103.205 77.978L103.188 77.9841C102.803 78.1206 102.411 78.2596 102.012 78.4006C95.5319 80.6892 92.3341 80.0358 91.5453 79.423L80.2594 72.8212C83.8933 70.6555 88.7102 67.8262 91.7677 66.1623C97.0062 63.3115 105.851 67.8982 105.851 67.8982C105.851 67.8982 112.064 70.8304 115.788 70.8688C118.768 70.8996 126.409 66.4722 129.857 64.2546L129.856 64.2539C133.02 66.9202 137.641 67.4539 141.419 65.2494C146.222 62.4468 147.845 56.2796 145.043 51.4747C142.241 46.6699 136.076 45.0468 131.272 47.8494C127.418 50.0986 125.612 54.5146 126.496 58.6544L118.218 63.4846C114.382 65.7232 106.61 62.1827 106.61 62.1827C106.61 62.1827 100.138 59.7526 97.3141 58.7599C97.6958 57.3921 98.6538 51.6985 98.6538 51.6985C98.6538 51.6985 99.2539 46.5696 101.143 42.2267C102.617 38.841 108.64 35.1516 111.687 33.6119C114.842 36.7926 119.857 37.5743 123.906 35.2121C128.709 32.4095 130.332 26.2423 127.53 21.4375C124.728 16.6326 118.563 15.0095 113.76 17.8121C109.824 20.1086 108.024 24.6638 109.043 28.8777L99.8299 34.2534C95.1747 36.9696 94.31 41.9251 92.9587 49.6693L92.9563 49.6833L92.956 49.6847C92.8857 50.0877 92.8141 50.4983 92.7405 50.9164C91.5493 57.6868 89.4092 60.1518 88.4881 60.538L76.5247 67.5185C76.4802 63.217 76.4551 57.1348 76.5653 53.4348C76.743 47.4719 85.1603 42.1401 85.1603 42.1401C85.1603 42.1401 90.8224 38.2496 92.7322 35.0507C94.26 32.4916 94.2867 23.6587 94.109 19.5621H94.1047ZM86.7213 10.0719C86.7213 12.2835 88.5136 14.0763 90.7245 14.0763C92.9354 14.0763 94.7277 12.2835 94.7277 10.0719C94.7277 7.86025 92.9354 6.06739 90.7245 6.06739C88.5136 6.06739 86.7213 7.86025 86.7213 10.0719ZM51.9594 10.0719C51.9594 12.2835 53.7517 14.0764 55.9626 14.0764C58.1735 14.0764 59.9658 12.2835 59.9658 10.0719C59.9658 7.86027 58.1735 6.06741 55.9626 6.06741C53.7517 6.06741 51.9594 7.86027 51.9594 10.0719ZM86.684 135.455C86.684 133.243 88.4763 131.45 90.6872 131.45C92.8981 131.45 94.6904 133.243 94.6904 135.455C94.6904 137.666 92.8981 139.459 90.6872 139.459C88.4763 139.459 86.684 137.666 86.684 135.455ZM51.9216 135.454C51.9216 133.243 53.7138 131.45 55.9247 131.45C58.1357 131.45 59.9279 133.243 59.9279 135.454C59.9279 137.666 58.1357 139.459 55.9247 139.459C53.7138 139.459 51.9216 137.666 51.9216 135.454ZM13.5372 57.7164C12.4317 59.6318 9.98341 60.288 8.06872 59.1822C6.15402 58.0764 5.498 55.6273 6.60345 53.712C7.7089 51.7967 10.1572 51.1404 12.0719 52.2462C13.9866 53.352 14.6426 55.8011 13.5372 57.7164ZM30.9196 27.6015C29.8141 29.5168 27.3658 30.1731 25.4511 29.0673C23.5364 27.9615 22.8804 25.5124 23.9859 23.5971C25.0913 21.6818 27.5396 21.0255 29.4543 22.1313C31.369 23.2371 32.025 25.6862 30.9196 27.6015ZM30.1882 122.39C32.0954 121.271 32.7347 118.818 31.6163 116.91C30.4979 115.002 28.0451 114.363 26.138 115.481C24.2309 116.6 23.5915 119.054 24.7099 120.961C25.8284 122.869 28.2811 123.509 30.1882 122.39ZM12.6044 92.3937C14.5115 91.2749 15.1509 88.8214 14.0325 86.9137C12.914 85.0059 10.4613 84.3663 8.55417 85.4851C6.64703 86.6039 6.00767 89.0574 7.12611 90.9652C8.24455 92.8729 10.6973 93.5125 12.6044 92.3937ZM115.375 28.5298C114.261 26.6194 114.906 24.1674 116.816 23.0531C118.725 21.9388 121.177 22.5841 122.291 24.4945C123.404 26.4049 122.759 28.8569 120.85 29.9712C118.94 31.0855 116.489 30.4402 115.375 28.5298ZM132.888 58.5671C131.774 56.6567 132.419 54.2047 134.329 53.0904C136.238 51.9761 138.689 52.6214 139.803 54.5318C140.917 56.4422 140.272 58.8941 138.363 60.0085C136.453 61.1228 134.002 60.4774 132.888 58.5671ZM138.101 85.6861C136.193 84.5697 133.741 85.2123 132.625 87.1215C131.509 89.0306 132.151 91.4833 134.06 92.5997C135.968 93.7161 138.42 93.0735 139.536 91.1643C140.652 89.2552 140.01 86.8025 138.101 85.6861ZM120.553 115.704C118.645 114.588 116.193 115.23 115.077 117.14C113.961 119.049 114.603 121.501 116.512 122.618C118.42 123.734 120.872 123.092 121.988 121.182C123.104 119.273 122.462 116.821 120.553 115.704Z" fill="url(#paint0_linear_296_735)"/>
<ellipse cx="183.039" cy="72.7631" rx="2.09894" ry="69.1543" fill="black"/>
<path d="M686.812 143.122V118.982H691.219V143.122H686.812ZM686.812 115.839V111.368H691.251V115.839H686.812Z" fill="black"/>
<path d="M671.907 143.122V132.429L663.777 118.982H668.798L675.017 129.48H673.235L679.422 118.982H684.443L676.345 132.396V143.122H671.907Z" fill="black"/>
<path d="M657.031 143.122V118.982H661.437V143.122H657.031ZM657.031 115.839V111.368H661.47V115.839H657.031Z" fill="black"/>
<path d="M639.766 143.122V118.982H644.171V139.233H654.504V143.122H639.766Z" fill="black"/>
<path d="M626.808 143.122V122.87H620.557V118.982H637.4V122.87H631.246V143.122H626.808Z" fill="black"/>
<path d="M598.849 143.122V118.982H602.282L615.563 136.868L613.781 137.224V118.982H618.187V143.122H614.721L601.634 125.106L603.254 124.75V143.122H598.849Z" fill="black"/>
<path d="M579.908 143.122V118.982H595.942V122.87H584.313V129.059H595.294V132.947H584.313V139.233H595.942V143.122H579.908Z" fill="black"/>
<path d="M565.506 143.51C563.779 143.51 562.181 143.197 560.712 142.571C559.244 141.944 557.959 141.069 556.858 139.946C555.756 138.823 554.893 137.505 554.266 135.993C553.662 134.481 553.359 132.829 553.359 131.036C553.359 129.243 553.651 127.59 554.234 126.078C554.839 124.544 555.681 123.227 556.761 122.125C557.862 121.002 559.147 120.138 560.615 119.533C562.084 118.906 563.682 118.593 565.409 118.593C567.137 118.593 568.681 118.885 570.041 119.468C571.423 120.051 572.589 120.829 573.539 121.801C574.49 122.751 575.17 123.799 575.58 124.944L571.661 126.823C571.207 125.57 570.441 124.555 569.361 123.778C568.281 123 566.964 122.611 565.409 122.611C563.897 122.611 562.559 122.967 561.393 123.68C560.248 124.393 559.352 125.376 558.704 126.629C558.078 127.882 557.765 129.351 557.765 131.036C557.765 132.721 558.089 134.2 558.736 135.475C559.406 136.728 560.324 137.71 561.49 138.423C562.656 139.136 563.995 139.493 565.506 139.493C566.737 139.493 567.871 139.255 568.907 138.78C569.944 138.283 570.775 137.592 571.402 136.706C572.028 135.799 572.341 134.729 572.341 133.498V131.651L574.349 133.401H565.409V129.675H576.746V132.105C576.746 133.963 576.433 135.604 575.807 137.03C575.181 138.456 574.328 139.655 573.248 140.627C572.19 141.577 570.991 142.301 569.652 142.798C568.314 143.273 566.932 143.51 565.506 143.51Z" fill="black"/>
<path d="M530.34 143.122L538.665 118.982H544.365L552.69 143.122H547.896L546.179 137.937H536.851L535.101 143.122H530.34ZM538.114 134.049H544.916L540.9 122.028H542.13L538.114 134.049Z" fill="black"/>
<path d="M512.727 143.122V118.982H517.133V143.122H512.727Z" fill="black"/>
<path d="M491.634 143.122V118.982H500.607C502.248 118.982 503.695 119.284 504.947 119.889C506.221 120.473 507.215 121.337 507.927 122.481C508.64 123.605 508.996 124.976 508.996 126.597C508.996 128.26 508.597 129.675 507.798 130.841C507.02 132.008 505.962 132.872 504.623 133.433L510.162 143.122H505.174L499.246 132.526L502.097 134.211H496.04V143.122H491.634ZM496.04 130.323H500.672C501.471 130.323 502.162 130.172 502.745 129.869C503.328 129.545 503.781 129.102 504.105 128.541C504.429 127.979 504.591 127.331 504.591 126.597C504.591 125.841 504.429 125.192 504.105 124.652C503.781 124.091 503.328 123.659 502.745 123.356C502.162 123.032 501.471 122.87 500.672 122.87H496.04V130.323Z" fill="black"/>
<path d="M466.924 143.122L475.249 118.982H480.949L489.274 143.122H484.48L482.763 137.937H473.435L471.685 143.122H466.924ZM474.698 134.049H481.5L477.484 122.028H478.714L474.698 134.049Z" fill="black"/>
<path d="M451.638 143.122V118.982H456.043V139.233H466.376V143.122H451.638Z" fill="black"/>
<path d="M426.924 143.122L435.249 118.982H440.949L449.274 143.122H444.48L442.763 137.937H433.435L431.685 143.122H426.924ZM434.698 134.049H441.5L437.484 122.028H438.714L434.698 134.049Z" fill="black"/>
<path d="M416.271 143.122V132.429L408.141 118.982H413.162L419.381 129.48H417.6L423.786 118.982H428.807L420.709 132.397V143.122H416.271Z" fill="black"/>
<path d="M401.395 143.122V118.982H405.801V143.122H401.395ZM401.395 115.839V111.368H405.834V115.839H401.395Z" fill="black"/>
<path d="M386.995 143.51C385.267 143.51 383.669 143.197 382.201 142.571C380.732 141.944 379.447 141.07 378.346 139.946C377.245 138.823 376.381 137.505 375.755 135.993C375.15 134.481 374.848 132.829 374.848 131.036C374.848 129.243 375.139 127.59 375.722 126.078C376.327 124.544 377.169 123.227 378.249 122.125C379.35 121.002 380.635 120.138 382.103 119.533C383.572 118.906 385.17 118.593 386.897 118.593C388.625 118.593 390.169 118.885 391.529 119.468C392.911 120.051 394.078 120.829 395.028 121.801C395.978 122.752 396.658 123.799 397.068 124.944L393.149 126.823C392.696 125.571 391.929 124.555 390.849 123.778C389.769 123 388.452 122.611 386.897 122.611C385.386 122.611 384.047 122.968 382.881 123.68C381.736 124.393 380.84 125.376 380.192 126.629C379.566 127.882 379.253 129.351 379.253 131.036C379.253 132.721 379.577 134.2 380.225 135.475C380.894 136.728 381.812 137.711 382.978 138.423C384.144 139.136 385.483 139.493 386.995 139.493C388.225 139.493 389.359 139.255 390.396 138.78C391.432 138.283 392.264 137.592 392.89 136.706C393.516 135.799 393.829 134.73 393.829 133.498V131.651L395.838 133.401H386.897V129.675H398.234V132.105C398.234 133.963 397.921 135.604 397.295 137.03C396.669 138.456 395.816 139.655 394.736 140.627C393.678 141.577 392.48 142.301 391.141 142.798C389.802 143.273 388.42 143.51 386.995 143.51Z" fill="black"/>
<path d="M359.332 143.51C357.562 143.51 355.91 143.197 354.376 142.571C352.843 141.944 351.504 141.07 350.36 139.946C349.215 138.823 348.319 137.505 347.671 135.993C347.045 134.46 346.732 132.807 346.732 131.036C346.732 129.243 347.045 127.59 347.671 126.078C348.298 124.566 349.183 123.248 350.327 122.125C351.472 121.002 352.811 120.138 354.344 119.533C355.877 118.906 357.54 118.593 359.332 118.593C361.125 118.593 362.787 118.906 364.321 119.533C365.854 120.159 367.193 121.034 368.337 122.157C369.482 123.259 370.367 124.566 370.993 126.078C371.641 127.59 371.965 129.243 371.965 131.036C371.965 132.807 371.641 134.46 370.993 135.993C370.346 137.505 369.449 138.823 368.305 139.946C367.16 141.07 365.821 141.944 364.288 142.571C362.777 143.197 361.125 143.51 359.332 143.51ZM359.332 139.493C360.52 139.493 361.611 139.287 362.604 138.877C363.597 138.445 364.461 137.851 365.195 137.095C365.951 136.339 366.523 135.442 366.912 134.406C367.322 133.369 367.527 132.245 367.527 131.036C367.527 129.826 367.322 128.714 366.912 127.698C366.523 126.661 365.951 125.765 365.195 125.009C364.461 124.231 363.597 123.637 362.604 123.227C361.611 122.816 360.52 122.611 359.332 122.611C358.166 122.611 357.086 122.816 356.093 123.227C355.1 123.637 354.225 124.231 353.469 125.009C352.735 125.765 352.163 126.661 351.753 127.698C351.342 128.714 351.137 129.826 351.137 131.036C351.137 132.245 351.342 133.369 351.753 134.406C352.163 135.442 352.735 136.339 353.469 137.095C354.225 137.851 355.1 138.445 356.093 138.877C357.086 139.287 358.166 139.493 359.332 139.493Z" fill="black"/>
<path d="M330.816 143.122V118.982H335.221V139.233H345.554V143.122H330.816Z" fill="black"/>
<path d="M314.587 143.51C312.816 143.51 311.164 143.197 309.631 142.571C308.098 141.944 306.759 141.07 305.615 139.946C304.47 138.823 303.574 137.505 302.926 135.993C302.3 134.46 301.987 132.807 301.987 131.036C301.987 129.243 302.3 127.59 302.926 126.078C303.552 124.566 304.438 123.248 305.582 122.125C306.727 121.002 308.066 120.138 309.599 119.533C311.132 118.906 312.795 118.593 314.587 118.593C316.38 118.593 318.042 118.906 319.576 119.533C321.109 120.159 322.448 121.034 323.592 122.157C324.737 123.259 325.622 124.566 326.248 126.078C326.896 127.59 327.22 129.243 327.22 131.036C327.22 132.807 326.896 134.46 326.248 135.993C325.6 137.505 324.704 138.823 323.56 139.946C322.415 141.07 321.076 141.944 319.543 142.571C318.032 143.197 316.38 143.51 314.587 143.51ZM314.587 139.493C315.775 139.493 316.865 139.287 317.859 138.877C318.852 138.445 319.716 137.851 320.45 137.095C321.206 136.339 321.778 135.442 322.167 134.406C322.577 133.369 322.782 132.245 322.782 131.036C322.782 129.826 322.577 128.714 322.167 127.698C321.778 126.661 321.206 125.765 320.45 125.009C319.716 124.231 318.852 123.637 317.859 123.227C316.865 122.816 315.775 122.611 314.587 122.611C313.421 122.611 312.341 122.816 311.348 123.227C310.355 123.637 309.48 124.231 308.724 125.009C307.99 125.765 307.418 126.661 307.008 127.698C306.597 128.714 306.392 129.826 306.392 131.036C306.392 132.245 306.597 133.369 307.008 134.406C307.418 135.442 307.99 136.339 308.724 137.095C309.48 137.851 310.355 138.445 311.348 138.877C312.341 139.287 313.421 139.493 314.587 139.493Z" fill="black"/>
<path d="M279.015 143.122V118.982H282.448L295.729 136.868L293.947 137.224V118.982H298.353V143.122H294.887L281.8 125.106L283.42 124.75V143.122H279.015Z" fill="black"/>
<path d="M255.947 143.122L263.851 130.971L256.012 118.982H261.065L267.479 128.8H265.147L271.528 118.982H276.581L268.774 130.971L276.646 143.122H271.592L265.147 133.174H267.479L261 143.122H255.947Z" fill="black"/>
<path d="M238.983 143.122V118.982H255.017V122.87H243.388V129.059H254.369V132.947H243.388V139.233H255.017V143.122H238.983Z" fill="black"/>
<path d="M226.027 143.122V122.87H219.776V118.982H236.62V122.87H230.465V143.122H226.027Z" fill="black"/>
<path d="M473.313 88.4458L481.638 64.3062H487.339L495.664 88.4458H490.87L489.153 83.2615H479.824L478.075 88.4458H473.313ZM481.088 79.3732H487.89L483.873 67.352H485.104L481.088 79.3732Z" fill="black"/>
<path d="M462.661 88.4458V77.7531L454.53 64.3062H459.551L465.77 74.8045H463.989L470.175 64.3062H475.196L467.098 77.7207V88.4458H462.661Z" fill="black"/>
<path d="M447.786 88.4459V64.3063H452.192V88.4459H447.786ZM447.786 61.1633V56.6918H452.225V61.1633H447.786Z" fill="black"/>
<path d="M435.753 88.8347C434.22 88.8347 432.795 88.5539 431.478 87.9923C430.182 87.4306 429.059 86.653 428.109 85.6593C427.18 84.6441 426.5 83.4668 426.068 82.1275L429.729 80.5398C430.312 81.9223 431.154 83.0131 432.255 83.8124C433.356 84.59 434.598 84.9789 435.98 84.9789C436.758 84.9789 437.427 84.8601 437.989 84.6224C438.572 84.3632 439.014 84.0176 439.317 83.5856C439.64 83.1536 439.802 82.6351 439.802 82.0303C439.802 81.3174 439.587 80.7342 439.155 80.2806C438.744 79.8053 438.118 79.4381 437.276 79.1789L432.644 77.6884C430.765 77.1052 429.351 76.2303 428.401 75.0638C427.45 73.8973 426.975 72.5257 426.975 70.9487C426.975 69.5663 427.31 68.3458 427.979 67.2873C428.67 66.2288 429.621 65.408 430.83 64.8247C432.061 64.2199 433.464 63.9175 435.041 63.9175C436.488 63.9175 437.816 64.1767 439.025 64.6951C440.234 65.192 441.271 65.894 442.135 66.8013C443.02 67.6869 443.679 68.7346 444.111 69.9443L440.483 71.5644C440.008 70.3547 439.295 69.4258 438.345 68.7778C437.395 68.1082 436.293 67.7733 435.041 67.7733C434.307 67.7733 433.659 67.9029 433.097 68.1622C432.536 68.3998 432.093 68.7454 431.769 69.199C431.467 69.6311 431.316 70.1495 431.316 70.7543C431.316 71.424 431.532 72.018 431.964 72.5364C432.396 73.0333 433.054 73.4221 433.94 73.7029L438.377 75.0962C440.299 75.7227 441.735 76.5867 442.685 77.6884C443.657 78.7901 444.143 80.151 444.143 81.7711C444.143 83.1536 443.787 84.374 443.074 85.4325C442.361 86.491 441.379 87.3226 440.126 87.9275C438.874 88.5323 437.416 88.8347 435.753 88.8347Z" fill="black"/>
<path d="M402.741 88.4458L411.065 64.3062H416.766L425.091 88.4458H420.297L418.58 83.2615H409.251L407.502 88.4458H402.741ZM410.515 79.3732H417.317L413.3 67.352H414.531L410.515 79.3732Z" fill="black"/>
<path d="M383.056 88.4458V64.3062H387.461V76.8782L386.262 76.457L396.531 64.3062H402.07L392.449 75.7118L392.708 72.6012L402.361 88.4458H397.178L390.7 77.8179L387.461 81.6738V88.4458H383.056Z" fill="black"/>
<path d="M374.332 88.4459V64.3063H378.739V88.4459H374.332ZM374.332 61.1633V56.6918H378.771V61.1633H374.332Z" fill="black"/>
<path d="M350.647 88.4458V64.3062H354.08L367.361 82.1922L365.58 82.5486V64.3062H369.985V88.4458H366.519L353.433 70.4302L355.052 70.0738V88.4458H350.647Z" fill="black"/>
<path d="M337.019 88.8346C335.162 88.8346 333.51 88.4458 332.063 87.6682C330.638 86.8905 329.515 85.8212 328.695 84.4603C327.874 83.0995 327.464 81.555 327.464 79.8268V64.3062H331.869V79.6C331.869 80.5937 332.085 81.4901 332.517 82.2894C332.97 83.0887 333.586 83.7151 334.363 84.1687C335.141 84.6008 336.026 84.8168 337.019 84.8168C338.034 84.8168 338.92 84.6008 339.676 84.1687C340.453 83.7151 341.058 83.0887 341.489 82.2894C341.943 81.4901 342.17 80.5937 342.17 79.6V64.3062H346.575V79.8268C346.575 81.555 346.165 83.0995 345.344 84.4603C344.524 85.8212 343.39 86.8905 341.943 87.6682C340.518 88.4458 338.877 88.8346 337.019 88.8346Z" fill="black"/>
<path d="M299.133 88.4458V64.3062H303.344L312.382 76.5866H310.373L319.216 64.3062H323.427V88.4458H318.989V69.3285L320.706 69.7498L311.539 81.9654H311.021L302.081 69.7498L303.539 69.3285V88.4458H299.133Z" fill="black"/>
<path d="M270.544 88.4458V64.3062H274.755L283.793 76.5866H281.784L290.627 64.3062H294.838V88.4458H290.401V69.3285L292.117 69.7498L282.95 81.9654H282.432L273.492 69.7498L274.95 69.3285V88.4458H270.544Z" fill="black"/>
<path d="M254.319 88.8347C252.548 88.8347 250.896 88.5215 249.363 87.8951C247.83 87.2686 246.491 86.3938 245.346 85.2705C244.202 84.1472 243.305 82.8295 242.658 81.3174C242.031 79.7837 241.718 78.1312 241.718 76.3599C241.718 74.567 242.031 72.9145 242.658 71.4024C243.284 69.8903 244.169 68.5726 245.314 67.4493C246.458 66.326 247.797 65.462 249.33 64.8571C250.864 64.2307 252.526 63.9175 254.319 63.9175C256.111 63.9175 257.774 64.2307 259.307 64.8571C260.84 65.4836 262.179 66.3584 263.324 67.4817C264.468 68.5834 265.353 69.8903 265.98 71.4024C266.628 72.9145 266.951 74.567 266.951 76.3599C266.951 78.1312 266.628 79.7837 265.98 81.3174C265.332 82.8295 264.436 84.1472 263.291 85.2705C262.147 86.3938 260.808 87.2686 259.275 87.8951C257.763 88.5215 256.111 88.8347 254.319 88.8347ZM254.319 84.8169C255.506 84.8169 256.597 84.6117 257.59 84.2012C258.584 83.7692 259.447 83.1752 260.182 82.4191C260.937 81.6631 261.51 80.7666 261.898 79.7297C262.309 78.6929 262.514 77.5696 262.514 76.3599C262.514 75.1502 262.309 74.0377 261.898 73.0225C261.51 71.9856 260.937 71.0892 260.182 70.3331C259.447 69.5555 258.584 68.9614 257.59 68.551C256.597 68.1406 255.506 67.9353 254.319 67.9353C253.153 67.9353 252.073 68.1406 251.079 68.551C250.086 68.9614 249.212 69.5555 248.456 70.3331C247.722 71.0892 247.149 71.9856 246.739 73.0225C246.329 74.0377 246.124 75.1502 246.124 76.3599C246.124 77.5696 246.329 78.6929 246.739 79.7297C247.149 80.7666 247.722 81.6631 248.456 82.4191C249.212 83.1752 250.086 83.7692 251.079 84.2012C252.073 84.6117 253.153 84.8169 254.319 84.8169Z" fill="black"/>
<path d="M221.751 88.4458V64.3062H226.156V76.8782L224.958 76.457L235.226 64.3062H240.765L231.145 75.7118L231.404 72.6012L241.056 88.4458H235.874L229.395 77.8179L226.156 81.6738V88.4458H221.751Z" fill="black"/>
<path d="M418.89 33.7701L427.214 9.63046H432.915L441.24 33.7701H436.446L434.729 28.5857H425.4L423.651 33.7701H418.89ZM426.664 24.6975H433.466L429.449 12.6763H430.68L426.664 24.6975Z" fill="black"/>
<path d="M408.238 33.7701V23.0774L400.108 9.63046H405.129L411.348 20.1288H409.566L415.753 9.63046H420.774L412.676 23.0449V33.7701H408.238Z" fill="black"/>
<path d="M393.358 33.77V9.63043H397.765V33.77H393.358ZM393.358 6.48742V2.01593H397.797V6.48742H393.358Z" fill="black"/>
<path d="M381.327 34.1589C379.794 34.1589 378.368 33.8781 377.051 33.3165C375.755 32.7548 374.632 31.9772 373.682 30.9835C372.754 29.9682 372.073 28.791 371.642 27.4517L375.302 25.864C375.885 27.2465 376.727 28.3373 377.828 29.1366C378.93 29.9142 380.171 30.3031 381.553 30.3031C382.331 30.3031 383 30.1843 383.562 29.9466C384.145 29.6874 384.588 29.3418 384.89 28.9098C385.214 28.4777 385.376 27.9593 385.376 27.3545C385.376 26.6416 385.16 26.0584 384.728 25.6048C384.318 25.1295 383.691 24.7623 382.849 24.5031L378.217 23.0126C376.338 22.4293 374.924 21.5545 373.974 20.388C373.024 19.2215 372.549 17.8498 372.549 16.2729C372.549 14.8904 372.883 13.67 373.553 12.6115C374.244 11.553 375.194 10.7322 376.403 10.1489C377.634 9.54409 379.038 9.24167 380.614 9.24167C382.061 9.24167 383.389 9.50089 384.598 10.0193C385.808 10.5162 386.844 11.2182 387.708 12.1255C388.593 13.0111 389.252 14.0588 389.684 15.2685L386.056 16.8886C385.581 15.6789 384.868 14.75 383.918 14.102C382.968 13.4323 381.867 13.0975 380.614 13.0975C379.88 13.0975 379.232 13.2271 378.671 13.4863C378.109 13.724 377.666 14.0696 377.343 14.5232C377.04 14.9552 376.889 15.4737 376.889 16.0785C376.889 16.7482 377.105 17.3422 377.537 17.8606C377.969 18.3575 378.627 18.7463 379.513 19.0271L383.95 20.4204C385.872 21.0468 387.308 21.9109 388.259 23.0126C389.23 24.1143 389.716 25.4751 389.716 27.0953C389.716 28.4777 389.36 29.6982 388.647 30.7567C387.935 31.8152 386.952 32.6468 385.7 33.2517C384.447 33.8565 382.99 34.1589 381.327 34.1589Z" fill="black"/>
<path d="M348.316 33.7701L356.641 9.63046H362.342L370.667 33.7701H365.873L364.156 28.5857H354.827L353.078 33.7701H348.316ZM356.09 24.6975H362.893L358.876 12.6763H360.107L356.09 24.6975Z" fill="black"/>
<path d="M321.703 33.7701V9.63046H325.914L334.951 21.9109H332.943L341.786 9.63046H345.996V33.7701H341.559V14.6528L343.276 15.074L334.109 27.2896H333.59L324.65 15.074L326.108 14.6528V33.7701H321.703Z" fill="black"/>
<path d="M300.613 33.7701V9.63046H309.585C311.226 9.63046 312.673 9.93288 313.926 10.5377C315.2 11.121 316.193 11.985 316.906 13.1299C317.618 14.2532 317.975 15.6249 317.975 17.245C317.975 18.9083 317.575 20.3232 316.776 21.4896C315.999 22.6561 314.941 23.5202 313.602 24.0818L319.141 33.7701H314.153L308.225 23.1746L311.075 24.8595H305.018V33.7701H300.613ZM305.018 20.9712H309.65C310.449 20.9712 311.14 20.82 311.723 20.5176C312.306 20.1936 312.76 19.7507 313.084 19.1891C313.408 18.6275 313.569 17.9794 313.569 17.245C313.569 16.4889 313.408 15.8409 313.084 15.3008C312.76 14.7392 312.306 14.3072 311.723 14.0048C311.14 13.6807 310.449 13.5187 309.65 13.5187H305.018V20.9712Z" fill="black"/>
<path d="M284.387 34.1589C282.617 34.1589 280.965 33.8457 279.432 33.2193C277.898 32.5928 276.559 31.718 275.415 30.5947C274.27 29.4714 273.374 28.1537 272.726 26.6416C272.1 25.1079 271.787 23.4554 271.787 21.6841C271.787 19.8912 272.1 18.2387 272.726 16.7266C273.353 15.2145 274.238 13.8968 275.383 12.7735C276.527 11.6502 277.866 10.7862 279.399 10.1813C280.932 9.55489 282.595 9.24167 284.387 9.24167C286.18 9.24167 287.843 9.55489 289.376 10.1813C290.909 10.8078 292.248 11.6826 293.392 12.8059C294.537 13.9076 295.422 15.2145 296.049 16.7266C296.696 18.2387 297.02 19.8912 297.02 21.6841C297.02 23.4554 296.696 25.1079 296.049 26.6416C295.401 28.1537 294.505 29.4714 293.36 30.5947C292.216 31.718 290.877 32.5928 289.343 33.2193C287.832 33.8457 286.18 34.1589 284.387 34.1589ZM284.387 30.1411C285.575 30.1411 286.666 29.9358 287.659 29.5254C288.652 29.0934 289.516 28.4993 290.25 27.7433C291.006 26.9872 291.578 26.0908 291.967 25.0539C292.377 24.017 292.583 22.8938 292.583 21.6841C292.583 20.4744 292.377 19.3619 291.967 18.3467C291.578 17.3098 291.006 16.4133 290.25 15.6573C289.516 14.8796 288.652 14.2856 287.659 13.8752C286.666 13.4647 285.575 13.2595 284.387 13.2595C283.221 13.2595 282.142 13.4647 281.148 13.8752C280.155 14.2856 279.28 14.8796 278.525 15.6573C277.79 16.4133 277.218 17.3098 276.808 18.3467C276.398 19.3619 276.192 20.4744 276.192 21.6841C276.192 22.8938 276.398 24.017 276.808 25.0539C277.218 26.0908 277.79 26.9872 278.525 27.7433C279.28 28.4993 280.155 29.0934 281.148 29.5254C282.142 29.9358 283.221 30.1411 284.387 30.1411Z" fill="black"/>
<path d="M254.159 33.7701V9.63046H270.258V13.5187H258.564V20.1936H268.8V24.0818H258.564V33.7701H254.159Z" fill="black"/>
<path d="M230.474 33.7701V9.63046H233.907L247.188 27.5164L245.406 27.8729V9.63046H249.812V33.7701H246.346L233.259 15.7545L234.879 15.398V33.7701H230.474Z" fill="black"/>
<path d="M221.751 33.7701V9.63046H226.158V33.7701H221.751ZM221.751 6.48746V2.01596H226.19V6.48746H221.751Z" fill="black"/>
<defs>
<linearGradient id="paint0_linear_296_735" x1="5.8294e-06" y1="145.526" x2="145.526" y2="0.0483236" gradientUnits="userSpaceOnUse">
<stop stop-color="#5390FB"/>
<stop offset="1" stop-color="#A5A7F5"/>
</linearGradient>
</defs>
</svg>
