<svg width="21.056152" height="27.000000" viewBox="0 0 21.0562 27" fill="none" xmlns="http://www.w3.org/2000/svg" xmlns:xlink="http://www.w3.org/1999/xlink">
	<desc>
			Created with Pixso.
	</desc>
	<defs/>
	<path id="Vector" d="M3.5 0C1.57 0 0 1.51 0 3.37L0 23.62C0 25.48 1.57 27 3.5 27L17.54 27C19.48 27 21.05 25.48 21.05 23.62L21.05 8.43L14.03 8.43C13.06 8.43 12.28 7.68 12.28 6.75L12.28 0L3.5 0ZM14.03 0L14.03 6.75L21.05 6.75L14.03 0ZM16.72 14.81L9.7 21.56C9.18 22.06 8.35 22.06 7.84 21.56L4.33 18.19C3.81 17.69 3.81 16.89 4.33 16.4C4.84 15.91 5.68 15.9 6.19 16.4L8.76 18.88L14.85 13.02C15.37 12.52 16.2 12.52 16.71 13.02C17.22 13.52 17.23 14.32 16.71 14.81L16.72 14.81Z" fill="#FFFFFF" fill-opacity="1.000000" fill-rule="nonzero"/>
</svg>
