<svg width="28.074219" height="19.050781" viewBox="0 0 28.0742 19.0508" fill="none" xmlns="http://www.w3.org/2000/svg" xmlns:xlink="http://www.w3.org/1999/xlink">
	<desc>
			Created with Pixso.
	</desc>
	<defs/>
	<path id="Vector" d="M2.37 7.26C5.4 4.45 9.51 2.72 14.03 2.72C18.56 2.72 22.67 4.45 25.7 7.26C26.26 7.78 27.14 7.76 27.68 7.22C28.21 6.68 28.2 5.82 27.64 5.3C24.11 2.01 19.32 0 14.03 0C8.75 0 3.96 2.01 0.42 5.3C-0.13 5.82 -0.15 6.68 0.39 7.22C0.92 7.77 1.81 7.79 2.37 7.26L2.37 7.26ZM14.03 9.52C16.53 9.52 18.8 10.42 20.54 11.9C21.12 12.4 22.01 12.34 22.52 11.78C23.03 11.22 22.98 10.36 22.4 9.86C20.17 7.96 17.24 6.8 14.03 6.8C10.83 6.8 7.9 7.96 5.68 9.86C5.09 10.36 5.04 11.22 5.55 11.78C6.07 12.35 6.95 12.4 7.54 11.9C9.27 10.42 11.54 9.52 14.04 9.52L14.03 9.52ZM16.84 16.32C16.84 15.6 16.55 14.91 16.02 14.4C15.49 13.89 14.78 13.6 14.03 13.6C13.29 13.6 12.58 13.89 12.05 14.4C11.52 14.91 11.23 15.6 11.23 16.32C11.23 17.05 11.52 17.74 12.05 18.25C12.58 18.76 13.29 19.05 14.03 19.05C14.78 19.05 15.49 18.76 16.02 18.25C16.55 17.74 16.84 17.05 16.84 16.32Z" fill="#FFFFFF" fill-opacity="1.000000" fill-rule="nonzero"/>
	<path id="Vector" d="" fill="#000000" fill-opacity="0" fill-rule="evenodd"/>
</svg>
