<svg width="101.488770" height="101.141602" viewBox="0 0 101.489 101.142" fill="none" xmlns="http://www.w3.org/2000/svg" xmlns:xlink="http://www.w3.org/1999/xlink">
	<desc>
			Created with Pixso.
	</desc>
	<defs/>
	<path id="Vector" d="M42.77 1.26C44.42 2.58 45.26 3.96 45.54 6.06C45.65 8.39 45.19 10.21 43.62 11.97C42.66 12.85 41.8 13.25 40.54 13.63C40.57 14.61 40.6 15.6 40.63 16.58C40.63 16.86 40.64 17.13 40.65 17.41C40.75 20.3 41.34 22.8 43.26 25.03C44.35 26.04 45.54 26.9 46.75 27.76C48.25 28.82 49.46 29.82 50.59 31.28C50.78 31.08 50.98 30.88 51.18 30.67C52.81 29.06 54.63 27.67 56.51 26.36C58.79 24.71 60.17 22.98 60.63 20.14C60.65 19.63 60.66 19.11 60.66 18.59C60.65 18.3 60.65 18.01 60.65 17.71C60.65 17.41 60.65 17.11 60.65 16.8C60.64 16.34 60.64 16.34 60.64 15.88C60.64 15.13 60.63 14.38 60.63 13.63C60.48 13.56 60.34 13.49 60.19 13.42C58.32 12.53 57.37 11.56 56.32 9.77C55.74 7.8 55.71 5.68 56.57 3.78C57.6 1.92 59.14 0.77 61.18 0.15C63.24 -0.25 65.19 0.1 66.93 1.27C68.55 2.58 69.47 3.8 69.69 5.91C69.75 7.86 69.78 9.62 68.5 11.18C67.51 12.21 66.53 13 65.24 13.63C65.24 13.79 65.23 13.96 65.23 14.12C64.86 24.68 64.86 24.68 60.9 28.56C59.92 29.35 58.88 30.04 57.84 30.74C55.4 32.43 53.63 34.25 53.03 37.25C52.88 38.89 52.93 40.54 52.96 42.19C52.97 42.63 52.97 43.08 52.98 43.52C52.99 44.6 53.01 45.68 53.03 46.76C54.1 46.15 55.16 45.55 56.23 44.94C56.59 44.74 56.96 44.53 57.32 44.33C57.84 44.03 58.37 43.74 58.89 43.44C59.13 43.3 59.13 43.3 59.38 43.17C60.17 42.71 60.81 42.25 61.44 41.6C61.62 41.6 61.8 41.6 61.99 41.6C62.06 41.44 62.14 41.29 62.21 41.13C62.42 40.72 62.64 40.32 62.86 39.92C63.84 38.15 64.14 36.58 64.31 34.57C64.78 30.17 65.82 26.51 69.24 23.49C69.93 22.96 70.65 22.58 71.43 22.19C74.04 21.02 74.04 21.02 75.68 18.86C75.79 17.81 75.79 17.81 75.79 16.76C75.87 14.99 76.9 13.9 78.12 12.71C80.07 11.47 81.66 11.18 83.97 11.46C85.99 12.05 87.5 13.02 88.52 14.88C89.5 17 89.66 18.91 88.89 21.12C88.12 22.75 86.85 24.14 85.19 24.86C83.25 25.35 80.97 25.42 79.15 24.51C78.86 24.32 78.57 24.14 78.27 23.95C77.5 23.59 77.5 23.59 76.91 23.9C76.71 24.01 76.51 24.13 76.3 24.25C75.96 24.45 75.96 24.45 75.62 24.65C75.39 24.78 75.15 24.92 74.91 25.07C74.68 25.2 74.45 25.33 74.21 25.47C72.6 26.41 71.31 27.43 70.21 28.95C70.11 29.1 70 29.24 69.89 29.39C68.94 31.04 68.87 32.85 68.67 34.71C68.41 37.03 68.08 39.16 67.14 41.32C67.42 41.31 67.7 41.3 67.98 41.29C69.07 41.33 69.81 41.52 70.82 41.9C71.32 42.09 71.32 42.09 71.82 42.27C72.84 42.67 73.83 43.12 74.83 43.56C77.55 44.74 79.55 44.84 82.34 43.77C84.15 42.99 86.06 42.15 87.5 40.78C87.98 39.55 87.86 38.54 87.77 37.25C88.23 35.44 89.53 34.22 91.03 33.18C92.56 32.31 94.18 32.12 95.91 32.36C97.81 32.91 99.51 33.96 100.62 35.61C101.56 37.44 101.64 39.41 101.21 41.41C100.53 43.45 99.27 44.71 97.4 45.68C95.55 46.41 93.68 46.37 91.84 45.67C91.68 45.56 91.52 45.46 91.35 45.35C90.79 44.98 90.33 44.74 89.67 44.58C88.73 44.86 87.98 45.39 87.18 45.94C86.72 46.23 86.26 46.51 85.8 46.79C85.58 46.93 85.36 47.07 85.13 47.21C82.26 48.89 78.73 49.14 75.51 48.48C73.71 47.91 71.98 47.1 70.27 46.31C67.87 45.22 65.79 45.14 63.3 45.91C61.83 46.48 60.5 47.31 59.15 48.13C58.86 48.3 58.57 48.48 58.27 48.65C57.23 49.27 56.2 49.89 55.2 50.56C56.55 51.38 57.91 52.19 59.27 53C59.45 53.11 59.62 53.21 59.81 53.32C60.31 53.62 60.81 53.91 61.31 54.21C61.6 54.38 61.9 54.55 62.2 54.73C64.29 55.79 66.31 56.1 68.57 55.47C70.58 54.77 72.52 53.93 74.46 53.06C76.94 52.06 80.43 52.04 82.95 52.93C84.41 53.6 85.83 54.36 87.24 55.13C87.52 55.28 87.52 55.28 87.8 55.43C88.27 55.69 88.74 55.96 89.21 56.23C89.45 56.33 89.69 56.43 89.94 56.53C90.8 56.12 90.8 56.12 91.34 55.75C92.78 54.87 94.39 54.77 96.03 55C98.2 55.55 99.62 56.79 100.79 58.66C101.63 60.38 101.67 62.54 101.11 64.35C100.22 66.27 99.01 67.58 97.07 68.44C95.17 69.05 93.33 69.03 91.5 68.21C89.77 67.23 88.35 65.8 87.77 63.86C87.82 63.31 87.87 62.75 87.92 62.2C87.87 61.19 87.78 60.58 87.01 59.89C83.88 57.71 80.76 56.41 76.91 56.8C75.68 57.15 74.55 57.63 73.39 58.16C71.4 59.03 69.56 59.72 67.41 60.06C67.47 60.24 67.52 60.42 67.58 60.6C68.21 62.78 68.49 64.92 68.7 67.18C68.89 68.97 69.28 70.42 70.13 72.01C70.22 72.18 70.31 72.35 70.4 72.53C71.39 74.29 73.33 75.12 75.01 76.08C75.26 76.23 75.5 76.38 75.75 76.54C75.96 76.67 76.17 76.8 76.39 76.93C76.57 77.04 76.75 77.16 76.94 77.27C77.47 77.5 77.47 77.5 78.02 77.23C78.19 77.12 78.36 77.01 78.54 76.9C80.36 75.87 82.19 75.84 84.24 76.08C86.09 76.64 87.59 77.67 88.59 79.34C89.45 81.21 89.63 83.05 89.13 85.04C88.3 87.09 87.04 88.41 85.06 89.39C83.17 90 81.05 89.93 79.26 89.1C77.48 88.08 76.35 86.75 75.67 84.82C75.54 84.12 75.63 83.57 75.73 82.87C75.79 82.17 75.79 82.17 75.56 81.51C74.63 80.71 73.59 80.15 72.51 79.59C69.21 77.88 66.56 75.56 65.24 72.01C64.64 69.96 64.46 67.89 64.27 65.77C63.96 62.89 63.08 60.82 60.81 58.96C59.41 57.94 57.91 57.1 56.4 56.26C56.08 56.07 55.75 55.89 55.42 55.7C54.62 55.25 53.83 54.8 53.03 54.36C53 55.7 52.98 57.04 52.97 58.39C52.96 58.84 52.96 59.3 52.95 59.75C52.88 63.07 52.96 65.87 55.35 68.43C56.25 69.23 57.2 69.94 58.17 70.65C61.46 73.08 63.95 75.57 64.82 79.73C65.16 82.37 65.02 85.1 64.97 87.76C65.18 87.8 65.4 87.83 65.61 87.87C67.02 88.18 67.99 89.31 68.88 90.4C69.95 92.13 69.79 94.22 69.59 96.18C69.13 98 67.84 99.2 66.33 100.25C64.65 101.18 62.95 101.31 61.08 100.94C59.16 100.39 57.76 99.36 56.73 97.64C55.81 95.73 55.65 93.52 56.32 91.49C57.25 89.39 58.6 88.43 60.63 87.49C60.65 86.46 60.67 85.43 60.68 84.4C60.69 84.11 60.69 83.82 60.7 83.52C60.73 80.63 60.23 78.22 58.19 76.08C56.84 74.88 55.38 73.85 53.91 72.81C52.69 71.93 51.78 71.03 50.86 69.84C50.68 70.02 50.5 70.21 50.31 70.4C48.94 71.76 47.5 72.99 45.9 74.09C43.44 75.78 41.62 77.53 40.93 80.56C40.77 81.91 40.79 83.24 40.8 84.6C40.8 85.02 40.8 85.02 40.8 85.44C40.8 86.12 40.81 86.81 40.81 87.49C41.03 87.59 41.03 87.59 41.26 87.69C43.15 88.6 44.54 89.76 45.3 91.79C45.79 94 45.63 96.07 44.49 98.03C43.26 99.75 41.79 100.63 39.73 101.06C37.86 101.32 36.1 100.89 34.52 99.86C32.87 98.54 32.02 97.16 31.75 95.06C31.65 92.97 31.98 91.37 33.21 89.66C34.19 88.58 35.12 88.01 36.47 87.49C36.48 87.15 36.48 87.15 36.48 86.82C36.49 85.98 36.51 85.14 36.53 84.3C36.54 83.77 36.55 83.23 36.55 82.7C36.66 78.53 37.9 75.27 40.9 72.34C41.88 71.53 42.92 70.84 43.97 70.12C46.33 68.51 47.8 67.02 48.41 64.13C48.48 63.36 48.48 62.59 48.47 61.81C48.47 61.6 48.47 61.38 48.47 61.16C48.46 60.48 48.46 59.81 48.45 59.13C48.45 58.66 48.44 58.2 48.44 57.74C48.44 56.61 48.43 55.49 48.41 54.36C47.37 54.96 46.33 55.56 45.29 56.16C45 56.33 44.71 56.49 44.41 56.67C40.1 59.12 40.1 59.12 37.63 63.27C37.29 64.67 37.16 66.08 37.03 67.51C36.64 71.66 35.33 74.89 32.13 77.68C31.44 78.17 30.77 78.55 30.02 78.94C27.49 80.07 27.49 80.07 25.8 82.07C25.77 82.89 25.82 83.68 25.89 84.5C25.41 86.59 24.05 87.89 22.36 89.12C20.73 89.98 18.54 89.93 16.79 89.48C14.92 88.74 13.66 87.52 12.6 85.84C11.89 83.84 12 81.4 12.86 79.48C13.85 77.77 15.34 76.69 17.2 76.08C19.49 75.85 21.21 75.97 23.17 77.17C23.87 77.45 24.14 77.49 24.85 77.2C25.06 77.08 25.28 76.95 25.49 76.82C25.85 76.61 25.85 76.61 26.2 76.4C26.45 76.25 26.69 76.1 26.94 75.95C27.18 75.81 27.42 75.66 27.67 75.52C30.01 74.1 31.58 72.49 32.4 69.84C32.6 68.78 32.71 67.72 32.81 66.65C33.06 64.24 33.43 62.06 34.3 59.79C34.02 59.8 33.75 59.81 33.46 59.83C32.38 59.79 31.63 59.59 30.62 59.21C30.29 59.09 29.96 58.97 29.62 58.84C28.94 58.58 28.31 58.29 27.65 57.98C25.15 56.78 22.83 56.27 20.08 56.96C19.44 57.23 18.88 57.54 18.29 57.89C17.92 58.09 17.54 58.3 17.17 58.5C16.09 59.1 15.02 59.72 13.94 60.33C13.95 60.49 13.95 60.65 13.96 60.81C14 62.97 13.5 64.68 12.4 66.54C10.61 68.19 8.69 68.84 6.3 68.81C4.32 68.66 2.77 67.79 1.46 66.31C0.22 64.32 -0.24 62.34 0.22 60.02C0.83 58.13 2.13 56.56 3.87 55.6C5.84 54.74 7.85 54.71 9.87 55.44C10.16 55.65 10.45 55.85 10.75 56.06C11 56.21 11.25 56.37 11.5 56.53C12.61 56.23 13.59 55.59 14.58 55.02C18.27 52.89 21.64 51.75 25.94 52.64C26.76 52.9 27.54 53.2 28.33 53.54C28.51 53.62 28.69 53.7 28.87 53.78C29.65 54.11 30.43 54.45 31.2 54.8C33.43 55.81 35.48 56.14 37.84 55.29C39.64 54.61 41.23 53.65 42.87 52.66C43.44 52.31 44.02 51.97 44.6 51.62C44.85 51.47 45.1 51.32 45.36 51.16C45.97 50.83 45.97 50.83 46.51 50.83C46.51 50.65 46.51 50.47 46.51 50.29C46.29 50.22 46.07 50.16 45.84 50.1C44.68 49.67 43.7 49.08 42.65 48.44C38.36 45.75 38.36 45.75 33.44 45.51C31.74 45.98 30.14 46.7 28.55 47.43C25.45 48.84 21.73 49.34 18.45 48.16C16.97 47.49 15.55 46.71 14.13 45.92C13.27 45.45 12.38 45.02 11.5 44.58C11.28 44.75 11.06 44.92 10.84 45.09C9.2 46.17 7.33 46.38 5.41 46.12C3.54 45.63 1.91 44.55 0.89 42.89C-0.01 41.11 -0.27 39.06 0.3 37.13C1.13 35.12 2.18 33.78 4.18 32.84C6.01 32.13 7.79 32.13 9.63 32.79C11.36 33.55 12.44 34.62 13.37 36.25C13.82 37.74 13.94 39.22 13.94 40.78C19.04 44.07 19.04 44.07 24.88 44.24C26.38 43.83 27.76 43.14 29.16 42.49C30.85 41.72 32.46 41.31 34.3 41.05C34.23 40.88 34.15 40.7 34.08 40.52C33.19 38.28 32.94 36.17 32.76 33.78C32.51 31.27 31.76 29.05 29.96 27.2C28.83 26.4 27.63 25.73 26.43 25.03C26.18 24.87 25.94 24.71 25.69 24.54C25.02 24.13 24.49 23.84 23.71 23.67C22.95 23.91 22.35 24.25 21.66 24.66C20.17 25.5 18.76 25.42 17.15 24.98C14.89 24.2 13.75 23.01 12.59 20.96C12.01 19.22 11.96 16.86 12.71 15.15C13.62 13.64 15.05 12.42 16.61 11.59C19.18 11.19 21.27 11.27 23.44 12.81C24.64 13.88 25.41 15.07 25.89 16.61C25.88 17.14 25.87 17.67 25.86 18.19C25.94 19.21 25.99 19.7 26.7 20.43C27.46 20.91 28.22 21.32 29.02 21.71C31.58 23.01 33.72 24.37 35.2 26.9C35.38 27.2 35.38 27.2 35.57 27.51C36.69 29.96 36.96 32.47 37.21 35.12C37.52 37.96 38.35 40.23 40.54 42.14C41.7 42.92 42.91 43.61 44.14 44.28C44.46 44.46 44.79 44.64 45.11 44.82C45.7 45.15 46.3 45.48 46.89 45.81C47.6 46.21 47.6 46.21 48.41 46.76C48.43 45.41 48.45 44.06 48.46 42.71C48.46 42.26 48.47 41.8 48.48 41.34C48.57 36.62 48.57 36.62 46.24 32.64C45.49 32.01 44.68 31.46 43.87 30.9C40.23 28.35 37.87 25.94 36.74 21.5C36.68 20.87 36.65 20.23 36.63 19.59C36.62 19.24 36.61 18.9 36.6 18.54C36.59 18.17 36.58 17.81 36.57 17.45C36.56 17.08 36.55 16.7 36.54 16.33C36.52 15.43 36.49 14.53 36.47 13.63C36.33 13.56 36.18 13.49 36.03 13.42C34.14 12.52 32.75 11.36 31.99 9.32C31.49 7.11 31.66 5.05 32.8 3.08C35.14 -0.2 39.4 -0.95 42.77 1.26ZM36.47 4.94C35.83 6.01 35.63 6.6 35.78 7.84C36.3 8.95 36.73 9.3 37.83 9.83C38.91 10.01 39.36 9.88 40.34 9.37C41.13 8.7 41.41 8.38 41.63 7.38C41.61 6.26 41.44 5.85 40.7 4.99C39.32 3.81 37.9 3.74 36.47 4.94ZM60.36 5.48C59.92 6.35 59.92 7.25 60.09 8.2C60.68 8.93 61.15 9.41 61.99 9.83C63.09 9.93 63.69 9.95 64.65 9.35C65.39 8.6 65.39 8.6 65.79 7.65C65.76 6.44 65.64 5.91 64.85 4.97C64.11 4.35 63.82 4.15 62.87 4.02C61.64 4.16 61.24 4.62 60.36 5.48ZM16.66 16.61C16.2 17.41 16.11 17.87 16.13 18.79C16.46 19.85 16.86 20.29 17.74 20.96C18.81 21.26 19.37 21.35 20.39 20.91C21.46 20.05 21.78 19.66 21.93 18.26C21.89 17.15 21.53 16.58 20.73 15.8C19.2 15.03 17.76 15.41 16.66 16.61ZM79.9 16.89C79.48 17.73 79.55 18.4 79.63 19.33C80.2 20.25 80.75 20.93 81.8 21.23C82.96 21.21 83.55 21.07 84.48 20.38C85.18 19.44 85.33 18.87 85.33 17.7C84.9 16.71 84.39 16.02 83.43 15.53C81.69 15.31 81.03 15.45 79.9 16.89ZM4.44 37.79C4.02 38.65 4.08 39.29 4.17 40.24C4.69 41.11 5.08 41.69 6.05 42.07C7.12 42.27 7.62 42.18 8.62 41.68C9.48 40.96 9.48 40.96 9.87 39.97C9.87 38.55 9.83 38.05 8.89 36.98C6.98 35.85 5.88 36.35 4.44 37.79ZM92.11 37.52C91.66 38.31 91.57 38.78 91.59 39.7C91.91 40.72 92.39 41.18 93.2 41.87C93.99 42.26 94.5 42.24 95.37 42.14C96.17 41.65 96.85 41.09 97.27 40.24C97.46 38.61 97.46 38.61 96.63 37.27C95.06 36.04 93.52 36.03 92.11 37.52ZM4.49 60.26C4.03 61.15 4.07 61.79 4.17 62.78C4.51 63.54 4.79 63.99 5.46 64.49C6.36 64.77 7.03 64.79 7.97 64.68C8.84 64.16 9.43 63.77 9.8 62.8C10.01 61.73 9.91 61.23 9.41 60.23C8.64 59.35 8.2 59.04 7.04 58.89C5.95 59.02 5.28 59.51 4.49 60.26ZM92.11 60.06C91.63 60.86 91.57 61.3 91.61 62.23C91.88 63.17 92.26 63.7 92.93 64.41C93.76 64.82 94.45 64.74 95.37 64.68C96.33 64.23 96.68 63.94 97.27 63.05C97.43 61.69 97.42 61.14 96.73 59.94C95.86 59.2 95.4 58.97 94.29 58.91C93.34 59.02 92.81 59.43 92.11 60.06ZM16.73 81.05C16.21 81.75 16.15 82.28 16.11 83.14C16.53 84.25 16.94 85.06 18.01 85.59C19.31 85.73 19.88 85.78 20.98 85.08C21.84 84.19 21.91 83.57 21.89 82.34C21.77 81.46 21.36 81.02 20.73 80.43C19.18 79.41 18.07 80.04 16.73 81.05ZM79.93 81.16C79.48 82.08 79.45 82.96 79.63 83.96C80.12 84.72 80.45 85.18 81.26 85.59C82.61 85.72 83.17 85.73 84.36 85.04C85.11 84.16 85.32 83.71 85.37 82.58C85.3 81.75 85.06 81.32 84.51 80.7C82.73 79.62 81.51 79.74 79.93 81.16ZM36.47 92.1C35.87 93.12 35.6 93.69 35.81 94.87C36.31 95.84 36.84 96.5 37.83 96.99C38.88 97.11 39.39 97.02 40.34 96.53C41.13 95.87 41.41 95.55 41.63 94.55C41.61 93.42 41.44 93.01 40.7 92.15C39.32 90.98 37.9 90.91 36.47 92.1ZM60.63 92.1C59.9 93.19 59.86 94.08 60.09 95.36C60.68 96.11 61.14 96.57 61.99 96.99C63.04 97.11 63.55 97.02 64.5 96.53C65.29 95.87 65.57 95.55 65.79 94.55C65.76 93.42 65.6 93.01 64.85 92.15C63.43 90.94 62.13 90.98 60.63 92.1Z" fill="#FFFFFF" fill-opacity="1.000000" fill-rule="nonzero"/>
</svg>
