<svg width="52.000000" height="52.000000" viewBox="0 0 52 52" fill="none" xmlns="http://www.w3.org/2000/svg" xmlns:xlink="http://www.w3.org/1999/xlink">
	<desc>
			Created with Pixso.
	</desc>
	<defs>
		<clipPath id="clip3_2293">
			<rect id="Mincom 1" rx="0.000000" width="51.000000" height="51.000000" transform="translate(0.500000 0.500000)" fill="white" fill-opacity="0"/>
		</clipPath>
	</defs>
	<rect id="Mincom 1" rx="0.000000" width="51.000000" height="51.000000" transform="translate(0.500000 0.500000)" fill="#FFFFFF" fill-opacity="0"/>
	<g clip-path="url(#clip3_2293)">
		<path id="Vector" d="M45.87 32.12C45.47 31.96 45.04 31.95 44.63 32.08C44.23 32.21 43.88 32.48 43.66 32.84L39.74 31.25L39.74 31.19C39.74 31.04 39.71 30.9 39.65 30.76C39.59 30.63 39.49 30.51 39.38 30.42C40.41 27.35 40.33 24.01 39.14 20.99L43.63 19.1C43.86 19.47 44.2 19.75 44.61 19.88C45.02 20.02 45.46 20.02 45.87 19.87C46.18 19.73 46.45 19.5 46.64 19.22C46.83 18.94 46.94 18.61 46.95 18.26C46.96 17.92 46.87 17.58 46.7 17.29C46.53 16.99 46.28 16.75 45.97 16.59C45.67 16.44 45.33 16.37 44.99 16.4C44.65 16.42 44.32 16.55 44.05 16.75C43.77 16.96 43.56 17.23 43.44 17.55C43.32 17.87 43.29 18.22 43.35 18.56L38.88 20.41C38.09 18.58 36.91 16.95 35.42 15.63C35.47 15.54 35.49 15.43 35.48 15.32C35.48 15.15 35.44 14.98 35.35 14.83C35.26 14.68 35.13 14.55 34.98 14.47C34.82 14.39 34.65 14.36 34.47 14.37C34.3 14.39 34.13 14.45 33.99 14.56C33.29 14.09 32.55 13.67 31.79 13.3L33.61 8.84C34.02 8.94 34.45 8.88 34.83 8.69C35.2 8.49 35.49 8.16 35.65 7.77C35.82 7.33 35.81 6.84 35.63 6.4C35.45 5.97 35.1 5.62 34.67 5.43C34.23 5.25 33.74 5.23 33.3 5.4C32.86 5.57 32.5 5.9 32.3 6.33C32.14 6.72 32.12 7.16 32.25 7.57C32.38 7.97 32.65 8.32 33.01 8.54L31.16 12.97C28.27 11.83 25.09 11.71 22.12 12.61C21.99 12.41 21.81 12.25 21.61 12.13C21.4 12.02 21.17 11.96 20.93 11.95L20.69 11.95L19.25 8.49C19.6 8.26 19.86 7.91 19.99 7.51C20.12 7.11 20.11 6.68 19.97 6.28C19.88 6.06 19.74 5.85 19.57 5.67C19.4 5.5 19.2 5.36 18.97 5.27C18.74 5.17 18.5 5.12 18.26 5.12C18.01 5.12 17.77 5.18 17.55 5.27C17.32 5.37 17.12 5.51 16.95 5.69C16.78 5.86 16.65 6.07 16.56 6.3C16.48 6.53 16.44 6.77 16.45 7.02C16.45 7.26 16.51 7.5 16.62 7.72C16.78 8.11 17.07 8.43 17.44 8.63C17.81 8.82 18.24 8.88 18.66 8.79L20.1 12.25C19.91 12.38 19.76 12.55 19.65 12.75C19.55 12.95 19.5 13.17 19.5 13.39C19.49 13.5 19.51 13.6 19.57 13.69C16.83 15.14 14.67 17.48 13.44 20.33L9.01 18.48C9.11 18.07 9.06 17.64 8.86 17.26C8.66 16.89 8.34 16.6 7.95 16.44C7.5 16.25 7 16.24 6.55 16.42C6.11 16.6 5.75 16.95 5.56 17.39C5.36 17.83 5.36 18.34 5.54 18.78C5.71 19.23 6.06 19.59 6.51 19.78C6.89 19.94 7.32 19.96 7.72 19.84C8.12 19.71 8.47 19.45 8.7 19.1L13.12 20.95C12.55 22.43 12.22 24 12.16 25.59C12.01 25.64 11.89 25.74 11.8 25.87C11.72 25.99 11.67 26.15 11.68 26.3C11.68 26.45 11.73 26.6 11.81 26.73C11.9 26.86 12.02 26.96 12.16 27.01C12.29 28.38 12.59 29.72 13.06 31.01L8.64 32.89C8.42 32.53 8.08 32.26 7.67 32.12C7.27 31.98 6.84 31.98 6.44 32.12C6.22 32.22 6.02 32.36 5.85 32.53C5.69 32.7 5.55 32.9 5.47 33.12C5.38 33.34 5.33 33.58 5.34 33.82C5.34 34.06 5.39 34.29 5.49 34.51C5.58 34.73 5.72 34.93 5.89 35.1C6.06 35.26 6.26 35.4 6.48 35.48C6.71 35.57 6.94 35.62 7.18 35.61C7.42 35.61 7.66 35.56 7.88 35.46C8.27 35.31 8.59 35.02 8.78 34.65C8.98 34.27 9.04 33.84 8.94 33.43L13.37 31.58C13.86 32.7 14.5 33.75 15.28 34.68C15.21 34.83 15.17 34.99 15.17 35.16C15.17 35.28 15.19 35.41 15.24 35.52C15.28 35.64 15.35 35.75 15.44 35.84C15.53 35.93 15.64 36 15.75 36.04C15.87 36.09 15.99 36.12 16.12 36.12C16.27 36.1 16.41 36.06 16.54 35.99C17.72 37.12 19.09 38.02 20.59 38.65L18.69 43.08C18.28 42.98 17.85 43.04 17.48 43.23C17.1 43.43 16.82 43.76 16.66 44.15C16.57 44.37 16.52 44.61 16.52 44.84C16.51 45.08 16.56 45.32 16.64 45.54C16.73 45.76 16.86 45.97 17.03 46.14C17.2 46.31 17.39 46.45 17.61 46.54C17.83 46.64 18.07 46.69 18.31 46.69C18.55 46.69 18.78 46.65 19.01 46.56C19.23 46.47 19.43 46.34 19.6 46.18C19.77 46.01 19.91 45.81 20 45.59C20.17 45.2 20.18 44.76 20.05 44.36C19.92 43.95 19.65 43.61 19.29 43.38L21.14 38.96C22.74 39.59 24.44 39.92 26.16 39.91C27.88 39.9 29.58 39.58 31.18 38.96L33.03 43.44C32.68 43.67 32.42 44.02 32.29 44.42C32.16 44.82 32.17 45.25 32.32 45.64C32.42 45.86 32.55 46.06 32.72 46.23C32.9 46.4 33.1 46.53 33.32 46.62C33.54 46.7 33.78 46.75 34.02 46.74C34.26 46.74 34.49 46.69 34.71 46.59C34.93 46.5 35.13 46.36 35.3 46.19C35.46 46.02 35.59 45.82 35.68 45.6C35.77 45.37 35.81 45.14 35.81 44.9C35.81 44.66 35.76 44.42 35.66 44.21C35.5 43.81 35.21 43.49 34.83 43.29C34.46 43.09 34.02 43.04 33.61 43.13L31.76 38.65C34.75 37.35 37.19 35.05 38.66 32.14L38.77 32.14C38.91 32.15 39.05 32.12 39.18 32.05C39.31 31.99 39.41 31.9 39.49 31.78L43.38 33.4C43.28 33.81 43.33 34.24 43.53 34.61C43.72 34.99 44.05 35.28 44.44 35.43C44.89 35.6 45.38 35.59 45.82 35.42C46.27 35.24 46.63 34.9 46.84 34.48C47.02 34.03 47.02 33.54 46.84 33.1C46.65 32.66 46.31 32.31 45.87 32.12ZM21.15 14.82L23.78 21.02L21.1 22.52C20.93 22.34 20.73 22.2 20.51 22.1L21.15 14.82ZM25.58 26.59L25.11 27.78L24.42 27.07L25.58 26.59ZM23.85 26.59L21.55 24.39L25.38 26L23.85 26.59ZM26.15 26.83L27.52 30.12L25.58 28.29L26.15 26.83ZM27.16 30.66C27.04 30.88 26.98 31.12 26.97 31.37L26.97 31.61L23.57 33.14L25.3 28.9L27.16 30.66ZM28.41 29.89L28.25 29.89L26.88 26.55L29.94 27.8L28.87 29.96C28.74 29.92 28.59 29.91 28.45 29.93L28.41 29.89ZM27.01 26L31.72 24.03L30.05 27.25L27.01 26ZM31.91 25.16L31.56 27.91L30.65 27.53L31.91 25.16ZM32.67 24.32C32.74 24.32 32.74 24.32 32.8 24.25L37.75 30.38L32.25 28.08L32.67 24.32ZM31.49 23.43L26.77 25.4L29.07 19.78L29.36 19.78C29.53 19.78 29.69 19.74 29.84 19.67L31.69 22.73C31.56 22.95 31.48 23.19 31.46 23.44L31.49 23.43ZM28.48 19.54L26.19 25.16L24.57 21.33L28.25 19.38C28.33 19.43 28.38 19.48 28.5 19.54L28.48 19.54ZM25.57 25.4L21.46 23.7L21.46 23.46C21.47 23.34 21.45 23.22 21.39 23.11L24.02 21.67L25.57 25.4ZM20.06 24.86L20.13 24.86L20.97 27.8L18.67 28.75L19.98 24.86L20.06 24.86ZM20.73 24.69C20.79 24.69 20.79 24.62 20.85 24.62L23.24 26.92L21.57 27.53L20.73 24.69ZM23.72 27.37L24.85 28.44L23.05 32.74L21.75 28.2L23.72 27.37ZM27.23 32.21C27.36 32.39 27.53 32.54 27.73 32.64C27.92 32.75 28.15 32.8 28.37 32.8L28.61 32.8L30.14 36.5L23.74 33.75L27.23 32.21ZM29.21 32.51C29.51 32.29 29.72 31.97 29.81 31.61L31.11 31.61L30.58 35.8L29.21 32.51ZM29.81 30.97C29.73 30.68 29.56 30.41 29.33 30.21L30.4 28.06L31.47 28.48L31.17 30.92L29.81 30.97ZM32.11 28.77L37.19 30.86L31.82 30.93L32.11 28.77ZM33.25 23.87C33.35 23.73 33.39 23.56 33.36 23.39L33.36 23.33L35.99 22.26L37.96 29.84L33.25 23.87ZM33.13 22.73L32.94 22.55L34.47 16.51L35.78 21.58L33.13 22.73ZM33.89 15.91L32.28 22.36L32.16 22.36L30.31 19.3C30.46 19.16 30.57 19 30.66 18.82C30.74 18.63 30.78 18.44 30.78 18.24C30.78 18.05 30.72 17.93 30.72 17.76L33.89 15.91ZM27.86 18.73L24.27 20.7L21.71 14.57L21.9 14.39L27.81 17.85C27.76 18 27.73 18.17 27.75 18.33C27.84 18.46 27.89 18.61 27.91 18.77L27.86 18.73ZM20.44 14.73L19.82 22.06C19.63 22.08 19.44 22.14 19.28 22.25C19.11 22.35 18.97 22.49 18.87 22.66L16.12 21.51L20.44 14.73ZM18.59 23.15L18.59 23.57L13.38 25.63L15.77 21.94L18.59 23.15ZM13.28 26.39L18.78 24.23C18.88 24.41 19.03 24.55 19.2 24.65L17.76 29.08L17.16 29.32L13.16 26.51C13.33 26.47 13.33 26.42 13.33 26.42L13.28 26.39ZM18.35 29.54L21.1 28.41L22.46 32.89L18.29 29.99L18.35 29.54ZM22.18 33.5L16.99 34.63C16.93 34.53 16.85 34.44 16.75 34.39L18 30.56L22.18 33.5ZM22.35 34.15L21.8 35.59L17.97 35.12L22.35 34.15ZM22.95 34.45C23.03 34.45 23.12 34.43 23.2 34.4C23.28 34.37 23.36 34.32 23.42 34.26L28.49 36.47L22.46 35.64L22.95 34.45ZM31.13 36.3L31.73 31.58L37.7 31.46L31.13 36.3ZM38.72 30.09L36.63 21.99L38.54 21.22C39.67 24.07 39.76 27.22 38.78 30.12L38.72 30.09ZM38.3 20.63L36.46 21.4L35.08 16.2C36.49 17.4 37.6 18.92 38.3 20.63ZM33.61 15C33.61 15.07 33.55 15.19 33.55 15.24L33.55 15.42L30.38 17.28L30.14 17.04L31.44 13.81C32.2 14.14 32.93 14.54 33.61 15ZM26.15 12.7C27.78 12.71 29.4 13.02 30.93 13.61L29.65 16.8L29.35 16.8C28.92 16.81 28.51 16.98 28.21 17.28L22.29 13.81C22.35 13.68 22.37 13.54 22.36 13.39L22.36 13.2C23.61 12.88 24.89 12.71 26.18 12.67L26.15 12.7ZM19.87 14.32C19.87 14.38 19.93 14.38 19.93 14.44L15.51 21.25L14.04 20.63C15.22 17.91 17.28 15.68 19.9 14.29L19.87 14.32ZM15.22 21.75L12.98 25.23C13.04 23.85 13.34 22.5 13.87 21.23L15.22 21.75ZM12.98 27.07L16.63 29.63L13.81 30.77C13.32 29.59 13.04 28.34 12.98 27.07ZM17.21 30.06L17.52 30.24L16.21 34.24C16.1 34.22 16 34.25 15.9 34.31C15.19 33.4 14.58 32.41 14.11 31.36L17.21 30.06ZM17.1 35.62L21.64 36.21L20.88 38.12C19.46 37.55 18.18 36.7 17.1 35.62ZM21.39 38.36L22.23 36.28L29.89 37.23C29.94 37.39 30.04 37.54 30.17 37.65C30.31 37.75 30.48 37.82 30.65 37.82L30.84 38.3C27.81 39.54 24.43 39.56 21.39 38.36ZM31.56 38.12L31.36 37.65C31.52 37.49 31.61 37.28 31.61 37.06L31.61 36.87L37.94 32.21C36.54 34.84 34.29 36.93 31.56 38.12Z" fill="#005487" fill-opacity="1.000000" fill-rule="nonzero"/>
		<path id="Vector" d="M21.1 5.31C21.2 5.46 21.28 5.62 21.34 5.79C21.41 5.94 21.45 6.1 21.46 6.26L25.11 3.58C25.42 3.35 25.8 3.23 26.18 3.23C26.57 3.23 26.95 3.35 27.26 3.58L30.91 6.26C30.97 6.08 30.97 5.96 31.03 5.79C31.1 5.62 31.18 5.47 31.27 5.31C31.54 4.86 31.93 4.48 32.4 4.24L28.7 1.48C27.99 0.9 27.1 0.58 26.17 0.58C25.25 0.58 24.36 0.9 23.65 1.48L19.93 4.25C20.42 4.48 20.82 4.85 21.1 5.31Z" fill="#005487" fill-opacity="1.000000" fill-rule="nonzero"/>
		<path id="Vector" d="M31.31 46.68C31.2 46.54 31.12 46.37 31.07 46.2C31 46.05 30.96 45.89 30.95 45.73L27.3 48.41C26.99 48.64 26.62 48.76 26.23 48.76C25.84 48.76 25.46 48.64 25.15 48.41L21.51 45.73C21.44 45.91 21.44 46.04 21.38 46.2C21.31 46.37 21.24 46.53 21.15 46.68C20.88 47.14 20.48 47.51 20.01 47.75L23.72 50.51C24.43 51.1 25.33 51.42 26.26 51.42C27.18 51.42 28.08 51.1 28.79 50.51L32.49 47.76C31.99 47.54 31.57 47.16 31.31 46.68Z" fill="#005487" fill-opacity="1.000000" fill-rule="nonzero"/>
		<path id="Vector" d="M7.95 14.93L8.5 15.12C8.66 15.16 8.8 15.25 8.92 15.36L9.58 10.88C9.63 10.5 9.81 10.15 10.08 9.88C10.35 9.62 10.7 9.44 11.07 9.39L15.55 8.73C15.48 8.61 15.37 8.42 15.32 8.3C15.26 8.18 15.19 7.95 15.13 7.76C15 7.26 15.03 6.72 15.19 6.23L10.63 6.84C9.71 6.93 8.85 7.34 8.2 8C7.55 8.65 7.14 9.51 7.05 10.43L6.38 14.97C6.9 14.84 7.43 14.83 7.95 14.93Z" fill="#005487" fill-opacity="1.000000" fill-rule="nonzero"/>
		<path id="Vector" d="M44.4 36.99L43.85 36.8C43.7 36.76 43.55 36.68 43.43 36.57L42.8 41.05C42.74 41.43 42.56 41.78 42.29 42.05C42.01 42.32 41.65 42.49 41.27 42.54L36.79 43.2C36.88 43.34 36.96 43.48 37.03 43.62C37.09 43.81 37.15 43.98 37.22 44.17C37.34 44.67 37.32 45.21 37.15 45.7L41.69 45.04C42.61 44.95 43.47 44.54 44.12 43.89C44.78 43.23 45.18 42.37 45.28 41.46L45.93 36.91C45.44 37.09 44.9 37.11 44.4 36.99Z" fill="#005487" fill-opacity="1.000000" fill-rule="nonzero"/>
		<path id="Vector" d="M5.98 30.83C6.14 30.76 6.3 30.72 6.46 30.71L3.78 27.07C3.55 26.76 3.42 26.38 3.42 25.99C3.42 25.6 3.55 25.23 3.78 24.91L6.46 21.27C6.28 21.2 6.16 21.2 5.98 21.15C5.81 21.09 5.63 20.96 5.51 20.91C5.05 20.64 4.68 20.24 4.44 19.77L1.69 23.47C1.1 24.19 0.77 25.08 0.77 26.01C0.77 26.94 1.1 27.83 1.69 28.55L4.44 32.25C4.7 31.79 5.07 31.4 5.51 31.11C5.64 30.98 5.81 30.88 5.98 30.83Z" fill="#005487" fill-opacity="1.000000" fill-rule="nonzero"/>
		<path id="Vector" d="M50.67 23.43L47.93 19.73C47.66 20.19 47.3 20.58 46.86 20.87C46.71 20.97 46.55 21.05 46.38 21.11C46.23 21.17 46.07 21.21 45.91 21.22L48.59 24.87C48.82 25.18 48.94 25.56 48.94 25.95C48.94 26.34 48.82 26.72 48.59 27.03L45.91 30.68C46.09 30.74 46.2 30.74 46.38 30.79C46.56 30.84 46.73 30.97 46.86 31.03C47.31 31.3 47.68 31.69 47.93 32.16L50.67 28.47C51.27 27.76 51.59 26.87 51.59 25.95C51.59 25.03 51.27 24.13 50.67 23.43Z" fill="#005487" fill-opacity="1.000000" fill-rule="nonzero"/>
		<path id="Vector" d="M9.62 41.06L8.96 36.58C8.84 36.64 8.66 36.77 8.54 36.82L7.99 37C7.48 37.13 6.95 37.1 6.46 36.94L7.12 41.48C7.21 42.4 7.62 43.26 8.27 43.91C8.92 44.56 9.78 44.97 10.7 45.06L15.25 45.72C15.11 45.22 15.09 44.7 15.18 44.19C15.25 44 15.3 43.83 15.36 43.65C15.41 43.49 15.49 43.35 15.6 43.22L11.13 42.56C10.74 42.53 10.37 42.36 10.1 42.08C9.82 41.81 9.65 41.44 9.62 41.06Z" fill="#005487" fill-opacity="1.000000" fill-rule="nonzero"/>
		<path id="Vector" d="M42.8 10.88L43.46 15.36C43.58 15.29 43.77 15.17 43.88 15.12L44.43 14.93C44.93 14.81 45.47 14.83 45.96 15L45.3 10.46C45.22 9.54 44.82 8.67 44.16 8.01C43.51 7.35 42.65 6.94 41.73 6.84L37.18 6.18C37.32 6.68 37.34 7.21 37.25 7.72C37.18 7.91 37.13 8.08 37.06 8.26C37.02 8.42 36.94 8.56 36.83 8.68L41.31 9.35C41.69 9.4 42.05 9.58 42.32 9.86C42.59 10.13 42.76 10.5 42.8 10.88Z" fill="#005487" fill-opacity="1.000000" fill-rule="nonzero"/>
	</g>
</svg>
