<svg width="60.000000" height="50.000000" viewBox="0 0 60 50" fill="none" xmlns="http://www.w3.org/2000/svg" xmlns:xlink="http://www.w3.org/1999/xlink">
	<desc>
			Created with Pixso.
	</desc>
	<defs>
		<clipPath id="clip12315_24336">
			<rect id="money-bills-solid 1" rx="0.000000" width="59.000000" height="49.000000" transform="translate(0.500000 0.500000)" fill="white" fill-opacity="0"/>
		</clipPath>
	</defs>
	<rect id="money-bills-solid 1" rx="0.000000" width="59.000000" height="49.000000" transform="translate(0.500000 0.500000)" fill="#FFFFFF" fill-opacity="0"/>
	<g clip-path="url(#clip12315_24336)">
		<path id="Vector" d="M7.69 11.42L7.69 30.42C7.69 33.42 9.99 35.85 12.82 35.85L46.16 35.85C48.99 35.85 51.29 33.42 51.29 30.42L51.29 11.42C51.29 8.43 48.99 6 46.16 6L12.82 6C9.99 6 7.69 8.43 7.69 11.42ZM12.82 25C15.65 25 17.95 27.43 17.95 30.42L12.82 30.42L12.82 25ZM17.95 11.42C17.95 14.42 15.65 16.85 12.82 16.85L12.82 11.42L17.95 11.42ZM46.16 25L46.16 30.42L41.03 30.42C41.03 27.43 43.33 25 46.16 25ZM41.03 11.42L46.16 11.42L46.16 16.85C43.33 16.85 41.03 14.42 41.03 11.42ZM23.08 20.92C23.08 19.12 23.75 17.4 24.95 16.12C26.16 14.85 27.79 14.14 29.49 14.14C31.19 14.14 32.82 14.85 34.02 16.12C35.22 17.4 35.9 19.12 35.9 20.92C35.9 22.72 35.22 24.45 34.02 25.72C32.82 26.99 31.19 27.71 29.49 27.71C27.79 27.71 26.16 26.99 24.95 25.72C23.75 24.45 23.08 22.72 23.08 20.92ZM3.84 13.46C3.84 12.33 2.98 11.42 1.92 11.42C0.85 11.42 0 12.33 0 13.46L0 33.82C0 39.44 4.3 44 9.61 44L41.67 44C42.73 44 43.59 43.09 43.59 41.96C43.59 40.83 42.73 39.92 41.67 39.92L9.61 39.92C6.42 39.92 3.84 37.19 3.84 33.82L3.84 13.46Z" fill="#636363" fill-opacity="1.000000" fill-rule="nonzero"/>
	</g>
</svg>
