<svg width="52.137939" height="42.000000" viewBox="0 0 52.1379 42" fill="none" xmlns="http://www.w3.org/2000/svg" xmlns:xlink="http://www.w3.org/1999/xlink">
	<desc>
			Created with Pixso.
	</desc>
	<defs>
		<clipPath id="clip12315_24336">
			<rect id="money-bills-solid 1" rx="0.000000" width="51.137939" height="41.000000" transform="translate(0.500000 0.500000)" fill="white" fill-opacity="0"/>
		</clipPath>
	</defs>
	<rect id="money-bills-solid 1" rx="0.000000" width="51.137939" height="41.000000" transform="translate(0.500000 0.500000)" fill="#FFFFFF" fill-opacity="0"/>
	<g clip-path="url(#clip12315_24336)">
		<path id="Vector" d="M6.68 9.59L6.68 25.55C6.68 28.07 8.68 30.12 11.14 30.12L40.11 30.12C42.57 30.12 44.56 28.07 44.56 25.55L44.56 9.59C44.56 7.08 42.57 5.04 40.11 5.04L11.14 5.04C8.68 5.04 6.68 7.08 6.68 9.59ZM11.14 21C13.6 21 15.59 23.04 15.59 25.55L11.14 25.55L11.14 21ZM15.59 9.59C15.59 12.11 13.6 14.16 11.14 14.16L11.14 9.59L15.59 9.59ZM40.11 21L40.11 25.55L35.65 25.55C35.65 23.04 37.65 21 40.11 21ZM35.65 9.59L40.11 9.59L40.11 14.16C37.65 14.16 35.65 12.11 35.65 9.59ZM20.05 17.58C20.05 16.06 20.64 14.61 21.68 13.54C22.73 12.48 24.14 11.87 25.62 11.87C27.1 11.87 28.52 12.48 29.56 13.54C30.61 14.61 31.19 16.06 31.19 17.58C31.19 19.09 30.61 20.54 29.56 21.61C28.52 22.67 27.1 23.28 25.62 23.28C24.14 23.28 22.73 22.67 21.68 21.61C20.64 20.54 20.05 19.09 20.05 17.58ZM3.34 11.3C3.34 10.36 2.59 9.59 1.67 9.59C0.74 9.59 0 10.36 0 11.3L0 28.41C0 33.13 3.73 36.96 8.35 36.96L36.21 36.96C37.13 36.96 37.88 36.19 37.88 35.25C37.88 34.3 37.13 33.54 36.21 33.54L8.35 33.54C5.58 33.54 3.34 31.24 3.34 28.41L3.34 11.3Z" fill="#636363" fill-opacity="1.000000" fill-rule="nonzero"/>
	</g>
</svg>
