<svg width="18.543457" height="20.227539" viewBox="0 0 18.5435 20.2275" fill="none" xmlns="http://www.w3.org/2000/svg" xmlns:xlink="http://www.w3.org/1999/xlink">
	<desc>
			Created with Pixso.
	</desc>
	<defs/>
	<path id="Vector" d="M11.64 2.62L8.15 8.66L9.88 9.66L13.37 3.62C17.54 6.39 19.67 10.7 17.93 13.72C16.07 16.94 10.74 17.08 6.02 14.35C1.3 11.63 -1.25 6.94 0.61 3.72C2.35 0.7 7.15 0.4 11.64 2.62ZM13.15 0L14.88 1L13.38 3.59L11.65 2.59L13.15 0ZM4 18.22L14.27 18.22L14.27 20.22L2.28 20.22C2.21 20.22 2.13 20.22 2.05 20.2C2.04 20.2 2.02 20.19 2.01 20.19C1.93 20.17 1.84 20.13 1.77 20.09C1.74 20.07 1.71 20.05 1.68 20.03C1.57 19.95 1.47 19.85 1.4 19.72C1.33 19.6 1.29 19.46 1.27 19.32C1.27 19.31 1.27 19.31 1.27 19.3C1.25 19.11 1.3 18.9 1.4 18.72L3.65 14.83L5.38 15.83L4 18.22Z" fill="white" fill-opacity="1.000000" fill-rule="nonzero"/>
</svg>
