<svg width="26.666504" height="24.363770" viewBox="0 0 26.6665 24.3638" fill="none" xmlns="http://www.w3.org/2000/svg" xmlns:xlink="http://www.w3.org/1999/xlink">
	<desc>
			Created with Pixso.
	</desc>
	<defs/>
	<path id="Vector" d="M3.9 0L5.79 1.8C3.86 3.65 2.66 6.21 2.66 9.03C2.66 11.85 3.86 14.41 5.79 16.26L3.9 18.06C1.49 15.75 0 12.56 0 9.03C0 5.5 1.49 2.31 3.9 0ZM22.76 0C25.17 2.31 26.66 5.5 26.66 9.03C26.66 12.56 25.17 15.75 22.76 18.06L20.87 16.26C22.8 14.41 24 11.85 24 9.03C24 6.21 22.8 3.65 20.87 1.8L22.76 0ZM7.67 3.61L9.56 5.42C8.59 6.34 8 7.62 8 9.03C8 10.44 8.59 11.72 9.56 12.64L7.67 14.45C6.22 13.06 5.33 11.15 5.33 9.03C5.33 6.91 6.22 5 7.67 3.61ZM18.99 3.61C20.43 5 21.33 6.91 21.33 9.03C21.33 11.15 20.43 13.06 18.99 14.45L17.1 12.64C18.06 11.72 18.66 10.44 18.66 9.03C18.66 7.62 18.06 6.34 17.1 5.42L18.99 3.61ZM13.33 11.58C11.86 11.58 10.66 10.44 10.66 9.03C10.66 7.62 11.86 6.47 13.33 6.47C14.8 6.47 16 7.62 16 9.03C16 10.44 14.8 11.58 13.33 11.58ZM13.33 14.14C14.1 14.14 14.77 14.67 14.91 15.39L16.66 24.36L10 24.36L11.75 15.39C11.89 14.67 12.56 14.14 13.33 14.14Z" fill="white" fill-opacity="1.000000" fill-rule="nonzero"/>
</svg>
