<svg width="35.000000" height="35.000000" viewBox="0 0 35 35" fill="none" xmlns="http://www.w3.org/2000/svg" xmlns:xlink="http://www.w3.org/1999/xlink">
	<desc>
			Created with Pixso.
	</desc>
	<defs>
		<clipPath id="clip12311_24322">
			<rect id="square-poll-vertical-solid 1" rx="0.000000" width="34.000000" height="34.000000" transform="translate(0.500000 0.500000)" fill="white" fill-opacity="0"/>
		</clipPath>
	</defs>
	<rect id="square-poll-vertical-solid 1" rx="0.000000" width="34.000000" height="34.000000" transform="translate(0.500000 0.500000)" fill="#FFFFFF" fill-opacity="0"/>
	<g clip-path="url(#clip12311_24322)">
		<path id="Vector" d="M5 2.18C2.24 2.18 0 4.14 0 6.56L0 28.43C0 30.85 2.24 32.81 5 32.81L30 32.81C32.75 32.81 35 30.85 35 28.43L35 6.56C35 4.14 32.75 2.18 30 2.18L5 2.18ZM10 15.31C11.38 15.31 12.5 16.29 12.5 17.5L12.5 24.06C12.5 25.27 11.38 26.25 10 26.25C8.61 26.25 7.5 25.27 7.5 24.06L7.5 17.5C7.5 16.29 8.61 15.31 10 15.31ZM15 10.93C15 9.72 16.11 8.75 17.5 8.75C18.88 8.75 20 9.72 20 10.93L20 24.06C20 25.27 18.88 26.25 17.5 26.25C16.11 26.25 15 25.27 15 24.06L15 10.93ZM25 19.68C26.38 19.68 27.5 20.66 27.5 21.87L27.5 24.06C27.5 25.27 26.38 26.25 25 26.25C23.61 26.25 22.5 25.27 22.5 24.06L22.5 21.87C22.5 20.66 23.61 19.68 25 19.68Z" fill="#636363" fill-opacity="1.000000" fill-rule="nonzero"/>
	</g>
</svg>
