<svg width="265.999023" height="56.000000" viewBox="0 0 265.999 56" fill="none" xmlns="http://www.w3.org/2000/svg" xmlns:xlink="http://www.w3.org/1999/xlink">
	<desc>
			Created with Pixso.
	</desc>
	<defs/>
	<path id="Union" d="M25.4072 3.87572C25.4072 5.67769 24.1743 7.19466 22.5073 7.62754C22.4917 7.88627 22.4814 8.19962 22.4814 8.54478C22.4814 9.9502 22.6519 11.8831 23.3257 12.8032C24.4023 14.2734 25.9902 15.4674 25.9902 15.4674C25.9902 15.4674 27.6963 16.8898 28.0771 17.2819C28.9541 16.5356 31.0166 14.8547 31.0166 14.8547C31.0166 14.8547 33.6997 12.957 33.6997 11.2474L33.6997 7.5584C32.1533 7.04951 31.0352 5.59186 31.0352 3.87572C31.0352 1.73716 32.7715 0 34.9097 0C37.0474 0 38.7842 1.73716 38.7842 3.87572C38.7842 5.5577 37.71 6.99139 36.2109 7.52689L36.2124 7.52689C36.229 7.91267 36.2412 8.40759 36.2412 8.94957C36.2412 10.6223 36.1265 12.7432 35.6826 13.487C34.9478 14.718 32.7686 16.215 32.7686 16.215C32.7686 16.215 29.5298 18.2668 29.4614 20.5613C29.439 21.3095 29.4312 22.3109 29.4312 23.3329C29.4312 24.2559 29.4375 25.1958 29.4458 25.9813L34.0493 23.2951C34.4038 23.1465 35.2275 22.1979 35.686 19.5926C36.2588 16.336 36.5283 14.2808 38.4141 13.1806L41.9595 11.1117C41.8872 10.8126 41.8521 10.509 41.8521 10.2071C41.8521 8.87313 42.5405 7.57389 43.7744 6.85406C45.6211 5.77656 47.9961 6.40184 49.0732 8.24911C49.4307 8.86231 49.6006 9.53376 49.6006 10.1966C49.6006 11.5306 48.9121 12.8299 47.6787 13.5497C46.1221 14.4578 44.1909 14.1565 42.9771 12.9336C41.8042 13.526 39.4863 14.9458 38.9194 16.2488C38.1924 17.92 37.9614 19.8936 37.9614 19.8936C37.9614 19.8936 37.5928 22.0845 37.4458 22.6108C38.5322 22.9929 41.0229 23.928 41.0229 23.928C41.0229 23.928 44.0137 25.2903 45.4897 24.429L48.6758 22.57C48.6191 22.3032 48.5908 22.0335 48.5908 21.7651C48.5908 20.4311 49.2793 19.1319 50.5132 18.412C52.3599 17.3345 54.7349 17.9598 55.812 19.8071C56.1694 20.4203 56.3398 21.0918 56.3398 21.7546C56.3398 23.0886 55.6514 24.3879 54.4175 25.1077C52.9644 25.9554 51.1846 25.7491 49.9668 24.723L49.9683 24.7253C48.6416 25.5786 45.7012 27.2823 44.5547 27.2704C43.1216 27.2556 40.731 26.1273 40.731 26.1273C40.731 26.1273 37.3271 24.3623 35.3115 25.4593C34.1343 26.0999 32.2798 27.1892 30.8813 28.0228L35.2256 30.5639C35.5288 30.7997 36.7593 31.0511 39.2529 30.1704C39.4092 30.1154 39.562 30.0611 39.7119 30.0078C42.5625 28.9967 44.3862 28.3497 46.1763 29.3969L49.7197 31.4696C50.939 30.3322 52.8066 30.0741 54.3188 30.9585C55.5503 31.6789 56.2373 32.9769 56.2373 34.3094C56.2373 34.9737 56.0664 35.6465 55.7075 36.2606C54.6284 38.1067 52.2524 38.7294 50.4072 37.6499C49.1753 36.9294 48.4888 35.6314 48.4888 34.2989C48.4888 33.9488 48.5361 33.5963 48.6333 33.2513C47.5415 32.5206 45.166 31.1985 43.7534 31.3448C41.9409 31.5323 40.1089 32.3008 40.1089 32.3008C40.1089 32.3008 38.02 33.0561 37.4897 33.1867C37.6909 34.3211 38.1006 36.9504 38.1006 36.9504C38.1006 36.9504 38.3838 40.2254 39.8589 41.0884L43.0435 42.9511C44.2632 41.8727 46.0854 41.6429 47.5664 42.5092C48.7979 43.2296 49.4849 44.5276 49.4849 45.8601C49.4849 46.5243 49.314 47.1971 48.9551 47.8113C47.876 49.6573 45.5 50.28 43.6548 49.2005C42.4229 48.4801 41.7363 47.1821 41.7363 45.8496C41.7363 45.6107 41.7583 45.3708 41.8032 45.1328L41.8013 45.136C40.4062 44.3993 37.4785 42.6746 36.9253 41.6698C36.2344 40.4139 36.042 37.7767 36.042 37.7767C36.042 37.7767 35.9067 33.944 33.9609 32.7267C32.792 31.9953 30.8564 30.8721 29.4302 30.0565C29.4224 30.8342 29.416 31.7589 29.416 32.6671C29.416 33.6891 29.4238 34.6905 29.4463 35.4387C29.5146 37.7332 32.7534 39.785 32.7534 39.785C32.7534 39.785 34.9326 41.2821 35.6675 42.513C36.1113 43.2568 36.2261 45.3778 36.2261 47.0505C36.2261 47.5925 36.2139 48.0874 36.1973 48.4731L36.1963 48.4731C37.6953 49.0086 38.7695 50.4423 38.7695 52.1243C38.7695 54.2628 37.0327 56 34.895 56C32.7568 56 31.0205 54.2628 31.0205 52.1243C31.0205 50.4083 32.1387 48.9508 33.6846 48.4418L33.6846 44.7526C33.6846 43.043 31.0015 41.1453 31.0015 41.1453C31.0015 41.1453 28.939 39.4645 28.062 38.7181C27.6812 39.1102 25.9751 40.5327 25.9751 40.5327C25.9751 40.5327 24.3872 41.7266 23.3105 43.1969C22.6367 44.1169 22.4663 46.0498 22.4663 47.4552C22.4663 47.8003 22.4766 48.1136 22.4922 48.3723C24.1597 48.805 25.3926 50.3221 25.3926 52.1243C25.3926 54.2628 23.6562 56 21.5181 56C19.3804 56 17.644 54.2628 17.644 52.1243C17.644 50.3722 18.8096 48.8896 20.4062 48.4109L20.4062 44.306C20.4062 42.1223 22.0454 40.854 24.5688 38.7181C26.4829 37.098 26.9453 35.9447 26.9453 35.5045C26.9453 35.4804 26.9438 35.4585 26.9414 35.4387L26.9414 30.0302L22.4819 32.6463C22.1279 32.7957 21.3066 33.7462 20.8545 36.3526C20.2891 39.6105 20.0244 41.6663 18.1416 42.771L14.6006 44.8481C14.6743 45.1503 14.7104 45.4572 14.7104 45.7623C14.7104 47.0931 14.0254 48.3896 12.7959 49.1107C10.9521 50.1926 8.57568 49.5729 7.49414 47.7281C7.1333 47.113 6.96191 46.4386 6.96191 45.7728C6.96191 44.442 7.64697 43.1454 8.87598 42.4243C10.4302 41.5127 12.3618 41.8092 13.5786 43.0288C14.75 42.4337 17.0649 41.0083 17.6289 39.704C18.3521 38.0311 18.5781 36.057 18.5781 36.057C18.5781 36.057 18.9419 33.8652 19.0874 33.3385C18 32.959 15.5073 32.0298 15.5073 32.0298C15.5073 32.0298 12.5132 30.6744 11.0391 31.5393L7.85742 33.4057C7.91553 33.6752 7.94385 33.9478 7.94385 34.219C7.94385 35.5498 7.25879 36.8464 6.02979 37.5675C4.18555 38.6493 1.80908 38.0296 0.727539 36.1849C0.366699 35.5697 0.195312 34.8953 0.195312 34.2295C0.195312 32.8987 0.880371 31.6021 2.10986 30.881C3.56055 30.03 5.34033 30.2319 6.56055 31.2548L6.55957 31.2535C7.88477 30.3971 10.8208 28.6865 11.9673 28.6956C13.4009 28.707 15.7939 29.8298 15.7939 29.8298C15.7939 29.8298 19.2017 31.5867 21.2148 30.485C22.4302 29.82 24.3682 28.6736 25.7788 27.8273L21.0317 25.0855C20.7266 24.8514 19.4946 24.6068 17.0059 25.5013C16.8506 25.5572 16.6978 25.6124 16.5479 25.6664C13.7036 26.6933 11.8833 27.3504 10.0874 26.3132L6.53271 24.2603C5.31982 25.4039 3.45361 25.6721 1.93701 24.7962C0.694824 24.0788 0 22.7745 0 21.4345C0 20.7772 0.166992 20.1113 0.519043 19.5019C1.58789 17.6498 3.95996 17.014 5.81152 18.0833C7.05371 18.8007 7.74854 20.1049 7.74854 21.445C7.74854 21.7883 7.70312 22.1341 7.60938 22.4729C8.70557 23.1976 11.0874 24.506 12.4995 24.3519C14.3105 24.1543 16.1382 23.3757 16.1382 23.3757C16.1382 23.3757 18.2227 22.6088 18.7524 22.4753C18.5449 21.342 18.1211 18.715 18.1211 18.715C18.1211 18.715 17.8198 15.4416 16.3398 14.5868L13.1455 12.7421C11.9316 13.8269 10.1108 14.0666 8.62549 13.2087C7.3833 12.4913 6.68848 11.187 6.68848 9.84695C6.68848 9.18968 6.85547 8.52381 7.20752 7.91434C8.27637 6.0623 10.6484 5.42646 12.5 6.49574C13.7422 7.21314 14.437 8.51741 14.437 9.85746C14.437 10.0886 14.4165 10.3207 14.374 10.5511L14.375 10.5501C15.7739 11.2791 18.7114 12.9874 19.27 13.9892C19.9683 15.2413 20.1748 17.8773 20.1748 17.8773C20.1748 17.8773 20.3315 21.7092 22.2837 22.9157C23.4922 23.6624 25.5156 24.8201 26.9565 25.6325L26.9565 20.5613C26.959 20.5415 26.9604 20.5196 26.9604 20.4955C26.9604 20.0554 26.498 18.902 24.584 17.2819C22.0605 15.146 20.4214 13.8777 20.4214 11.694L20.4214 7.58926C18.8242 7.11075 17.6587 5.62798 17.6587 3.87572C17.6587 1.73716 19.395 0 21.5327 0C23.6709 0 25.4072 1.73716 25.4072 3.87572ZM23.0732 3.87572C23.0732 3.49887 22.938 3.15338 22.7129 2.88547C22.4707 2.59653 22.145 2.41908 21.8003 2.35854C21.4297 2.29274 21.0659 2.36636 20.7627 2.54152C20.4365 2.72964 20.2051 3.01987 20.0859 3.34878C20.0225 3.52248 19.9922 3.70029 19.9922 3.8752C19.9922 4.05675 20.0249 4.23516 20.0859 4.4026C20.2144 4.75687 20.46 5.03513 20.7627 5.20988C21.0889 5.39864 21.4561 5.45389 21.8003 5.3929C22.1714 5.32781 22.4878 5.13422 22.7129 4.866C22.9551 4.57754 23.0732 4.22567 23.0732 3.87572ZM36.4497 3.87572C36.4497 3.49887 36.3145 3.15338 36.0894 2.88547C35.8472 2.59653 35.5215 2.41908 35.1768 2.35854C34.8062 2.29274 34.4424 2.36636 34.1396 2.54152C33.813 2.72964 33.5815 3.01987 33.4624 3.34878C33.3989 3.52248 33.3687 3.70029 33.3687 3.8752C33.3687 4.05675 33.4014 4.23516 33.4624 4.4026C33.5908 4.75687 33.8364 5.03513 34.1396 5.20988C34.4653 5.39864 34.8325 5.45389 35.1768 5.3929C35.5479 5.32781 35.8647 5.13422 36.0894 4.866C36.3315 4.57754 36.4497 4.22567 36.4497 3.87572ZM11.333 8.51771C11.0068 8.32928 10.6396 8.27403 10.2954 8.33502C9.92432 8.40011 9.60742 8.59371 9.38281 8.86192C9.14062 9.1501 9.02246 9.50157 9.02246 9.85116L9.02246 9.85217L9.02246 9.85368C9.02246 10.23 9.1582 10.5749 9.38281 10.8425C9.625 11.1314 9.95068 11.3088 10.2954 11.3694C10.666 11.4352 11.0298 11.3616 11.3325 11.1864C11.6592 10.9983 11.8906 10.708 12.0098 10.3791C12.0732 10.2054 12.1035 10.0276 12.1035 9.85272C12.1035 9.67117 12.0708 9.49276 12.0098 9.32533C11.8813 8.97105 11.6357 8.69279 11.333 8.51771ZM46.5024 11.5329C46.8281 11.3431 47.0581 11.0518 47.1758 10.7224C47.2378 10.5506 47.2671 10.375 47.2671 10.2023C47.2671 10.0184 47.2339 9.83781 47.1714 9.66856C47.041 9.31487 46.7944 9.0377 46.4907 8.8643C46.1636 8.67699 45.7964 8.62337 45.4521 8.6859C45.0815 8.75263 44.7656 8.94765 44.5425 9.21684C44.3027 9.5042 44.1865 9.85347 44.1865 10.2008L44.1865 10.2087C44.1875 10.5856 44.3247 10.9305 44.5513 11.1974C44.7944 11.4852 45.1211 11.6612 45.4658 11.7202C45.8369 11.7844 46.2002 11.7091 46.5024 11.5329ZM4.64453 20.1052C4.31836 19.9168 3.95117 19.8615 3.60693 19.9225C3.23584 19.9876 2.91943 20.1812 2.69434 20.4494C2.45215 20.7376 2.33447 21.0891 2.33447 21.4387L2.33447 21.4397L2.33447 21.4412C2.33447 21.8175 2.46973 22.1624 2.69434 22.43C2.93652 22.7189 3.26221 22.8964 3.60693 22.9569C3.97803 23.0227 4.34131 22.9491 4.64453 22.7739C4.9707 22.5858 5.20215 22.2956 5.32129 21.9667C5.38477 21.793 5.41504 21.6151 5.41504 21.4402C5.41504 21.2587 5.38281 21.0803 5.32178 20.9128C5.19287 20.5586 4.94727 20.2803 4.64453 20.1052ZM53.2417 23.0909C53.5669 22.9011 53.7969 22.6098 53.915 22.2804C53.9766 22.1086 54.0059 21.933 54.0059 21.7603C54.0059 21.5764 53.9727 21.3958 53.9102 21.2265C53.7803 20.8729 53.5332 20.5957 53.2295 20.4223C52.9023 20.235 52.5352 20.1814 52.1914 20.2439C51.8203 20.3106 51.5049 20.5056 51.2812 20.7748C51.042 21.0622 50.9253 21.4115 50.9253 21.7588L50.9253 21.7667C50.9268 22.1436 51.064 22.4884 51.29 22.7554C51.5332 23.0432 51.8599 23.2192 52.2046 23.2782C52.5757 23.3424 52.9395 23.2671 53.2417 23.0909ZM3.29053 32.895C2.96533 33.0856 2.73633 33.3775 2.61914 33.7072C2.55811 33.8779 2.5293 34.0523 2.5293 34.2238C2.5293 34.409 2.56299 34.5908 2.62598 34.761C2.75684 35.1143 3.00439 35.3909 3.30859 35.5636C3.63623 35.7502 4.00342 35.8029 4.34766 35.7396C4.71826 35.672 5.0332 35.4762 5.25635 35.2065C5.49414 34.9196 5.60986 34.5715 5.60986 34.2254L5.60986 34.2138C5.60742 33.8369 5.46973 33.4924 5.24268 33.226C4.99902 32.9387 4.67188 32.7635 4.32666 32.7053C3.95557 32.642 3.59229 32.7181 3.29053 32.895ZM51.5854 35.6344C51.9106 35.8246 52.2773 35.8819 52.6221 35.8228C52.9932 35.7598 53.311 35.568 53.5371 35.301C53.7812 35.0139 53.9014 34.6627 53.9028 34.3128L53.9028 34.3026C53.9028 33.9297 53.7695 33.5872 53.5483 33.3205C53.3081 33.0302 52.9829 32.851 52.6387 32.7885C52.2681 32.7207 51.9043 32.7923 51.6001 32.9657C51.2729 33.152 51.04 33.441 50.9185 33.7692C50.853 33.9454 50.8223 34.126 50.8223 34.3036C50.8223 34.4822 50.8535 34.6579 50.9126 34.823C51.0396 35.178 51.2832 35.4576 51.5854 35.6344ZM10.0566 44.4383C9.73193 44.6289 9.50244 44.9207 9.38525 45.2504C9.32422 45.4211 9.29541 45.5955 9.29541 45.7671C9.29541 45.9522 9.3291 46.134 9.39258 46.3042C9.52344 46.6576 9.771 46.9342 10.0752 47.1069C10.4023 47.2934 10.77 47.3462 11.1138 47.2828C11.4844 47.2152 11.7998 47.0195 12.0225 46.7498C12.2603 46.4628 12.376 46.1147 12.376 45.7686L12.376 45.7571C12.374 45.3802 12.2358 45.0356 12.0093 44.7693C11.7651 44.482 11.438 44.3067 11.0933 44.2486C10.7217 44.1853 10.3589 44.2614 10.0566 44.4383ZM44.833 47.185C45.1582 47.3752 45.5244 47.4325 45.8696 47.3735C46.2407 47.3104 46.5586 47.1186 46.7847 46.8516C47.0288 46.5645 47.1489 46.2133 47.1504 45.8634L47.1504 45.8532C47.1504 45.4803 47.0171 45.1379 46.7959 44.8711C46.5557 44.5809 46.2305 44.4016 45.8862 44.3392C45.5156 44.2713 45.1519 44.3429 44.8477 44.5164C44.5205 44.7027 44.2876 44.9916 44.166 45.3199C44.1006 45.496 44.0698 45.6766 44.0698 45.8542C44.0698 46.0329 44.1011 46.2085 44.1602 46.3737C44.2871 46.7286 44.5308 47.0083 44.833 47.185ZM22.6982 53.1145C22.9233 52.8466 23.0586 52.5011 23.0586 52.1243C23.0586 51.7743 22.9404 51.4225 22.6982 51.134C22.4731 50.8658 22.1567 50.6722 21.7856 50.6071C21.4414 50.5461 21.0742 50.6014 20.748 50.7901C20.4453 50.9649 20.1997 51.2431 20.0713 51.5974C20.0103 51.7648 19.9775 51.9433 19.9775 52.1248C19.9775 52.2997 20.0078 52.4775 20.0713 52.6512C20.1904 52.9801 20.4219 53.2704 20.748 53.4585C21.0513 53.6337 21.4146 53.7073 21.7856 53.6415C22.1304 53.5809 22.4561 53.4035 22.6982 53.1145ZM36.0747 53.1145C36.2998 52.8466 36.4355 52.5011 36.4355 52.1243C36.4351 51.7743 36.3169 51.4225 36.0747 51.134C35.8501 50.8658 35.5332 50.6722 35.1621 50.6071C34.8179 50.5461 34.4507 50.6014 34.125 50.7901C33.8218 50.9649 33.5762 51.2431 33.4478 51.5974C33.3867 51.7648 33.354 51.9433 33.354 52.1248C33.354 52.2997 33.3843 52.4775 33.4478 52.6512C33.5669 52.9801 33.7983 53.2704 34.125 53.4585C34.4277 53.6337 34.7915 53.7073 35.1621 53.6415C35.5068 53.5809 35.833 53.4035 36.0747 53.1145Z" clip-rule="evenodd" fill="#FFFFFF" fill-opacity="1.000000" fill-rule="evenodd"/>
	<ellipse id="Ellipse 1" cx="70.433105" cy="28.000305" rx="0.807685" ry="26.611034" fill="#FFFFFF" fill-opacity="1.000000"/>
	<path id="Vector" d="M264.29 55.07L264.29 45.78L265.98 45.78L265.98 55.07L264.29 55.07ZM264.29 44.57L264.29 42.85L265.99 42.85L265.99 44.57L264.29 44.57Z" fill="#FFFFFF" fill-opacity="1.000000" fill-rule="nonzero"/>
	<path id="Vector" d="M258.55 55.07L258.55 50.96L255.42 45.78L257.35 45.78L259.75 49.82L259.06 49.82L261.44 45.78L263.37 45.78L260.26 50.94L260.26 55.07L258.55 55.07Z" fill="#FFFFFF" fill-opacity="1.000000" fill-rule="nonzero"/>
	<path id="Vector" d="M252.83 55.07L252.83 45.78L254.52 45.78L254.52 55.07L252.83 55.07ZM252.83 44.57L252.83 42.85L254.53 42.85L254.53 44.57L252.83 44.57Z" fill="#FFFFFF" fill-opacity="1.000000" fill-rule="nonzero"/>
	<path id="Vector" d="M246.18 55.07L246.18 45.78L247.88 45.78L247.88 53.57L251.85 53.57L251.85 55.07L246.18 55.07Z" fill="#FFFFFF" fill-opacity="1.000000" fill-rule="nonzero"/>
	<path id="Vector" d="M241.2 55.07L241.2 47.28L238.79 47.28L238.79 45.78L245.27 45.78L245.27 47.28L242.9 47.28L242.9 55.07L241.2 55.07Z" fill="#FFFFFF" fill-opacity="1.000000" fill-rule="nonzero"/>
	<path id="Vector" d="M230.44 55.07L230.44 45.78L231.76 45.78L236.87 52.66L236.18 52.8L236.18 45.78L237.88 45.78L237.88 55.07L236.54 55.07L231.51 48.14L232.13 48L232.13 55.07L230.44 55.07Z" fill="#FFFFFF" fill-opacity="1.000000" fill-rule="nonzero"/>
	<path id="Vector" d="M223.15 55.07L223.15 45.78L229.32 45.78L229.32 47.28L224.84 47.28L224.84 49.66L229.07 49.66L229.07 51.16L224.84 51.16L224.84 53.57L229.32 53.57L229.32 55.07L223.15 55.07Z" fill="#FFFFFF" fill-opacity="1.000000" fill-rule="nonzero"/>
	<path id="Vector" d="M217.61 55.22C216.94 55.22 216.33 55.1 215.76 54.86C215.2 54.62 214.7 54.28 214.28 53.85C213.85 53.42 213.52 52.91 213.28 52.33C213.05 51.75 212.93 51.11 212.93 50.42C212.93 49.73 213.04 49.09 213.27 48.51C213.5 47.92 213.82 47.41 214.24 46.99C214.66 46.56 215.16 46.23 215.72 45.99C216.29 45.75 216.9 45.63 217.57 45.63C218.23 45.63 218.83 45.74 219.35 45.97C219.88 46.19 220.33 46.49 220.7 46.87C221.06 47.23 221.32 47.63 221.48 48.08L219.97 48.8C219.8 48.32 219.5 47.93 219.09 47.63C218.67 47.33 218.17 47.18 217.57 47.18C216.99 47.18 216.47 47.31 216.02 47.59C215.58 47.86 215.24 48.24 214.99 48.72C214.75 49.21 214.63 49.77 214.63 50.42C214.63 51.07 214.75 51.64 215 52.13C215.26 52.61 215.61 52.99 216.06 53.26C216.51 53.54 217.02 53.67 217.61 53.67C218.08 53.67 218.52 53.58 218.91 53.4C219.31 53.21 219.63 52.94 219.87 52.6C220.12 52.25 220.24 51.84 220.24 51.37L220.24 50.66L221.01 51.33L217.57 51.33L217.57 49.9L221.93 49.9L221.93 50.83C221.93 51.55 221.81 52.18 221.57 52.73C221.33 53.27 221 53.74 220.58 54.11C220.18 54.48 219.72 54.75 219.2 54.95C218.69 55.13 218.15 55.22 217.61 55.22Z" fill="#FFFFFF" fill-opacity="1.000000" fill-rule="nonzero"/>
	<path id="Vector" d="M204.07 55.07L207.28 45.78L209.47 45.78L212.67 55.07L210.83 55.07L210.17 53.08L206.58 53.08L205.91 55.07L204.07 55.07ZM207.07 51.58L209.68 51.58L208.14 46.95L208.61 46.95L207.07 51.58Z" fill="#FFFFFF" fill-opacity="1.000000" fill-rule="nonzero"/>
	<path id="Vector" d="M197.3 55.07L197.3 45.78L198.99 45.78L198.99 55.07L197.3 55.07Z" fill="#FFFFFF" fill-opacity="1.000000" fill-rule="nonzero"/>
	<path id="Vector" d="M189.18 55.07L189.18 45.78L192.63 45.78C193.26 45.78 193.82 45.9 194.3 46.13C194.79 46.36 195.18 46.69 195.45 47.13C195.72 47.56 195.86 48.09 195.86 48.71C195.86 49.35 195.71 49.9 195.4 50.35C195.1 50.79 194.69 51.13 194.18 51.34L196.31 55.07L194.39 55.07L192.11 50.99L193.21 51.64L190.87 51.64L190.87 55.07L189.18 55.07ZM190.87 50.15L192.66 50.15C192.96 50.15 193.23 50.09 193.45 49.97C193.68 49.85 193.85 49.68 193.98 49.46C194.1 49.24 194.17 48.99 194.17 48.71C194.17 48.42 194.1 48.17 193.98 47.96C193.85 47.75 193.68 47.58 193.45 47.47C193.23 47.34 192.96 47.28 192.66 47.28L190.87 47.28L190.87 50.15Z" fill="#FFFFFF" fill-opacity="1.000000" fill-rule="nonzero"/>
	<path id="Vector" d="M179.67 55.07L182.87 45.78L185.07 45.78L188.27 55.07L186.43 55.07L185.77 53.08L182.18 53.08L181.5 55.07L179.67 55.07ZM182.66 51.58L185.28 51.58L183.73 46.95L184.21 46.95L182.66 51.58Z" fill="#FFFFFF" fill-opacity="1.000000" fill-rule="nonzero"/>
	<path id="Vector" d="M173.79 55.07L173.79 45.78L175.48 45.78L175.48 53.57L179.46 53.57L179.46 55.07L173.79 55.07Z" fill="#FFFFFF" fill-opacity="1.000000" fill-rule="nonzero"/>
	<path id="Vector" d="M164.28 55.07L167.48 45.78L169.68 45.78L172.88 55.07L171.03 55.07L170.37 53.08L166.78 53.08L166.11 55.07L164.28 55.07ZM167.27 51.58L169.89 51.58L168.34 46.95L168.82 46.95L167.27 51.58Z" fill="#FFFFFF" fill-opacity="1.000000" fill-rule="nonzero"/>
	<path id="Vector" d="M160.18 55.07L160.18 50.96L157.05 45.78L158.98 45.78L161.38 49.82L160.69 49.82L163.07 45.78L165 45.78L161.89 50.94L161.89 55.07L160.18 55.07Z" fill="#FFFFFF" fill-opacity="1.000000" fill-rule="nonzero"/>
	<path id="Vector" d="M154.45 55.07L154.45 45.78L156.15 45.78L156.15 55.07L154.45 55.07ZM154.45 44.57L154.45 42.85L156.16 42.85L156.16 44.57L154.45 44.57Z" fill="#FFFFFF" fill-opacity="1.000000" fill-rule="nonzero"/>
	<path id="Vector" d="M148.91 55.22C148.25 55.22 147.63 55.1 147.07 54.86C146.5 54.62 146.01 54.28 145.58 53.85C145.16 53.42 144.83 52.91 144.59 52.33C144.35 51.75 144.24 51.11 144.24 50.42C144.24 49.73 144.35 49.09 144.58 48.51C144.81 47.92 145.13 47.41 145.55 46.99C145.97 46.56 146.47 46.23 147.03 45.99C147.6 45.75 148.21 45.63 148.88 45.63C149.54 45.63 150.13 45.74 150.66 45.97C151.19 46.19 151.64 46.49 152 46.87C152.37 47.23 152.63 47.63 152.79 48.08L151.28 48.8C151.11 48.32 150.81 47.93 150.4 47.63C149.98 47.33 149.47 47.18 148.88 47.18C148.29 47.18 147.78 47.31 147.33 47.59C146.89 47.86 146.54 48.24 146.3 48.72C146.05 49.21 145.93 49.77 145.93 50.42C145.93 51.07 146.06 51.64 146.31 52.13C146.57 52.61 146.92 52.99 147.37 53.26C147.82 53.54 148.33 53.67 148.91 53.67C149.39 53.67 149.82 53.58 150.22 53.4C150.62 53.21 150.94 52.94 151.18 52.6C151.42 52.25 151.54 51.84 151.54 51.37L151.54 50.66L152.32 51.33L148.88 51.33L148.88 49.9L153.24 49.9L153.24 50.83C153.24 51.55 153.12 52.18 152.88 52.73C152.64 53.27 152.31 53.74 151.89 54.11C151.48 54.48 151.02 54.75 150.51 54.95C149.99 55.13 149.46 55.22 148.91 55.22Z" fill="#FFFFFF" fill-opacity="1.000000" fill-rule="nonzero"/>
	<path id="Vector" d="M138.27 55.22C137.59 55.22 136.95 55.1 136.36 54.86C135.77 54.62 135.26 54.28 134.82 53.85C134.38 53.42 134.03 52.91 133.78 52.33C133.54 51.74 133.42 51.1 133.42 50.42C133.42 49.73 133.54 49.09 133.78 48.51C134.02 47.93 134.36 47.42 134.8 46.99C135.24 46.56 135.76 46.23 136.35 45.99C136.94 45.75 137.58 45.63 138.27 45.63C138.96 45.63 139.6 45.75 140.19 45.99C140.78 46.23 141.29 46.57 141.73 47C142.17 47.43 142.52 47.93 142.76 48.51C143 49.09 143.13 49.73 143.13 50.42C143.13 51.1 143 51.74 142.76 52.33C142.51 52.91 142.16 53.42 141.72 53.85C141.28 54.28 140.77 54.62 140.18 54.86C139.59 55.1 138.96 55.22 138.27 55.22ZM138.27 53.67C138.73 53.67 139.14 53.59 139.53 53.44C139.91 53.27 140.24 53.04 140.53 52.75C140.82 52.46 141.04 52.12 141.19 51.72C141.34 51.32 141.42 50.89 141.42 50.42C141.42 49.95 141.34 49.53 141.19 49.14C141.04 48.74 140.82 48.39 140.53 48.1C140.24 47.8 139.91 47.57 139.53 47.41C139.14 47.26 138.73 47.18 138.27 47.18C137.82 47.18 137.4 47.26 137.02 47.41C136.64 47.57 136.3 47.8 136.01 48.1C135.73 48.39 135.51 48.74 135.35 49.14C135.19 49.53 135.12 49.95 135.12 50.42C135.12 50.89 135.19 51.32 135.35 51.72C135.51 52.12 135.73 52.46 136.01 52.75C136.3 53.04 136.64 53.27 137.02 53.44C137.4 53.59 137.82 53.67 138.27 53.67Z" fill="#FFFFFF" fill-opacity="1.000000" fill-rule="nonzero"/>
	<path id="Vector" d="M127.3 55.07L127.3 45.78L128.99 45.78L128.99 53.57L132.97 53.57L132.97 55.07L127.3 55.07Z" fill="#FFFFFF" fill-opacity="1.000000" fill-rule="nonzero"/>
	<path id="Vector" d="M121.05 55.22C120.37 55.22 119.73 55.1 119.14 54.86C118.55 54.62 118.04 54.28 117.6 53.85C117.16 53.42 116.81 52.91 116.56 52.33C116.32 51.74 116.2 51.1 116.2 50.42C116.2 49.73 116.32 49.09 116.56 48.51C116.8 47.93 117.14 47.42 117.58 46.99C118.03 46.56 118.54 46.23 119.13 45.99C119.72 45.75 120.36 45.63 121.05 45.63C121.74 45.63 122.38 45.75 122.97 45.99C123.56 46.23 124.07 46.57 124.52 47C124.96 47.43 125.3 47.93 125.54 48.51C125.79 49.09 125.91 49.73 125.91 50.42C125.91 51.1 125.79 51.74 125.54 52.33C125.29 52.91 124.94 53.42 124.5 53.85C124.06 54.28 123.55 54.62 122.96 54.86C122.38 55.1 121.74 55.22 121.05 55.22ZM121.05 53.67C121.51 53.67 121.93 53.59 122.31 53.44C122.69 53.27 123.02 53.04 123.31 52.75C123.6 52.46 123.82 52.12 123.97 51.72C124.12 51.32 124.2 50.89 124.2 50.42C124.2 49.95 124.12 49.53 123.97 49.14C123.82 48.74 123.6 48.39 123.31 48.1C123.02 47.8 122.69 47.57 122.31 47.41C121.93 47.26 121.51 47.18 121.05 47.18C120.6 47.18 120.19 47.26 119.8 47.41C119.42 47.57 119.08 47.8 118.79 48.1C118.51 48.39 118.29 48.74 118.13 49.14C117.97 49.53 117.9 49.95 117.9 50.42C117.9 50.89 117.97 51.32 118.13 51.72C118.29 52.12 118.51 52.46 118.79 52.75C119.08 53.04 119.42 53.27 119.8 53.44C120.19 53.59 120.6 53.67 121.05 53.67Z" fill="#FFFFFF" fill-opacity="1.000000" fill-rule="nonzero"/>
	<path id="Vector" d="M107.36 55.07L107.36 45.78L108.68 45.78L113.79 52.66L113.11 52.8L113.11 45.78L114.8 45.78L114.8 55.07L113.47 55.07L108.43 48.14L109.06 48L109.06 55.07L107.36 55.07Z" fill="#FFFFFF" fill-opacity="1.000000" fill-rule="nonzero"/>
	<path id="Vector" d="M98.48 55.07L101.53 50.4L98.51 45.78L100.45 45.78L102.92 49.56L102.02 49.56L104.48 45.78L106.42 45.78L103.42 50.4L106.45 55.07L104.51 55.07L102.02 51.24L102.92 51.24L100.43 55.07L98.48 55.07Z" fill="#FFFFFF" fill-opacity="1.000000" fill-rule="nonzero"/>
	<path id="Vector" d="M91.96 55.07L91.96 45.78L98.13 45.78L98.13 47.28L93.65 47.28L93.65 49.66L97.88 49.66L97.88 51.16L93.65 51.16L93.65 53.57L98.13 53.57L98.13 55.07L91.96 55.07Z" fill="#FFFFFF" fill-opacity="1.000000" fill-rule="nonzero"/>
	<path id="Vector" d="M86.97 55.07L86.97 47.28L84.57 47.28L84.57 45.78L91.05 45.78L91.05 47.28L88.68 47.28L88.68 55.07L86.97 55.07Z" fill="#FFFFFF" fill-opacity="1.000000" fill-rule="nonzero"/>
	<path id="Vector" d="M182.13 34.03L185.33 24.74L187.53 24.74L190.73 34.03L188.89 34.03L188.22 32.04L184.63 32.04L183.96 34.03L182.13 34.03ZM185.12 30.54L187.74 30.54L186.19 25.91L186.67 25.91L185.12 30.54Z" fill="#FFFFFF" fill-opacity="1.000000" fill-rule="nonzero"/>
	<path id="Vector" d="M178.03 34.03L178.03 29.92L174.9 24.74L176.83 24.74L179.23 28.78L178.54 28.78L180.92 24.74L182.85 24.74L179.74 29.9L179.74 34.03L178.03 34.03Z" fill="#FFFFFF" fill-opacity="1.000000" fill-rule="nonzero"/>
	<path id="Vector" d="M172.31 34.03L172.31 24.74L174 24.74L174 34.03L172.31 34.03ZM172.31 23.53L172.31 21.81L174.01 21.81L174.01 23.53L172.31 23.53Z" fill="#FFFFFF" fill-opacity="1.000000" fill-rule="nonzero"/>
	<path id="Vector" d="M167.68 34.18C167.09 34.18 166.54 34.07 166.03 33.86C165.53 33.64 165.1 33.34 164.73 32.96C164.38 32.57 164.12 32.11 163.95 31.6L165.36 30.99C165.58 31.52 165.91 31.94 166.33 32.25C166.75 32.55 167.23 32.7 167.76 32.7C168.06 32.7 168.32 32.65 168.54 32.56C168.76 32.46 168.93 32.33 169.05 32.16C169.17 31.99 169.23 31.79 169.23 31.56C169.23 31.29 169.15 31.06 168.99 30.89C168.83 30.71 168.59 30.56 168.26 30.46L166.48 29.89C165.76 29.67 165.21 29.33 164.85 28.88C164.48 28.43 164.3 27.9 164.3 27.3C164.3 26.77 164.43 26.3 164.68 25.89C164.95 25.48 165.32 25.17 165.78 24.94C166.26 24.71 166.8 24.59 167.4 24.59C167.96 24.59 168.47 24.69 168.94 24.89C169.4 25.08 169.8 25.35 170.13 25.7C170.47 26.04 170.73 26.45 170.89 26.91L169.5 27.53C169.31 27.07 169.04 26.71 168.67 26.46C168.31 26.2 167.88 26.08 167.4 26.08C167.12 26.08 166.87 26.13 166.65 26.23C166.44 26.32 166.27 26.45 166.14 26.62C166.03 26.79 165.97 26.99 165.97 27.22C165.97 27.48 166.05 27.71 166.22 27.91C166.38 28.1 166.64 28.25 166.98 28.36L168.69 28.89C169.43 29.13 169.98 29.47 170.34 29.89C170.72 30.31 170.9 30.84 170.9 31.46C170.9 31.99 170.77 32.46 170.49 32.87C170.22 33.28 169.84 33.6 169.36 33.83C168.88 34.06 168.32 34.18 167.68 34.18Z" fill="#FFFFFF" fill-opacity="1.000000" fill-rule="nonzero"/>
	<path id="Vector" d="M154.97 34.03L158.17 24.74L160.37 24.74L163.57 34.03L161.73 34.03L161.07 32.04L157.48 32.04L156.8 34.03L154.97 34.03ZM157.96 30.54L160.58 30.54L159.03 25.91L159.51 25.91L157.96 30.54Z" fill="#FFFFFF" fill-opacity="1.000000" fill-rule="nonzero"/>
	<path id="Vector" d="M147.4 34.03L147.4 24.74L149.09 24.74L149.09 29.58L148.63 29.42L152.58 24.74L154.71 24.74L151.01 29.13L151.11 27.93L154.83 34.03L152.83 34.03L150.34 29.94L149.09 31.42L149.09 34.03L147.4 34.03Z" fill="#FFFFFF" fill-opacity="1.000000" fill-rule="nonzero"/>
	<path id="Vector" d="M144.04 34.03L144.04 24.74L145.74 24.74L145.74 34.03L144.04 34.03ZM144.04 23.53L144.04 21.81L145.75 21.81L145.75 23.53L144.04 23.53Z" fill="#FFFFFF" fill-opacity="1.000000" fill-rule="nonzero"/>
	<path id="Vector" d="M134.92 34.03L134.92 24.74L136.25 24.74L141.36 31.62L140.67 31.76L140.67 24.74L142.37 24.74L142.37 34.03L141.03 34.03L136 27.1L136.62 26.96L136.62 34.03L134.92 34.03Z" fill="#FFFFFF" fill-opacity="1.000000" fill-rule="nonzero"/>
	<path id="Vector" d="M129.68 34.18C128.97 34.18 128.33 34.03 127.77 33.73C127.23 33.43 126.79 33.02 126.48 32.5C126.16 31.97 126 31.38 126 30.71L126 24.74L127.7 24.74L127.7 30.63C127.7 31.01 127.78 31.35 127.95 31.66C128.12 31.97 128.36 32.21 128.66 32.38C128.96 32.55 129.3 32.63 129.68 32.63C130.07 32.63 130.41 32.55 130.7 32.38C131 32.21 131.24 31.97 131.4 31.66C131.58 31.35 131.66 31.01 131.66 30.63L131.66 24.74L133.36 24.74L133.36 30.71C133.36 31.38 133.2 31.97 132.89 32.5C132.57 33.02 132.13 33.43 131.58 33.73C131.03 34.03 130.4 34.18 129.68 34.18Z" fill="#FFFFFF" fill-opacity="1.000000" fill-rule="nonzero"/>
	<path id="Vector" d="M115.1 34.03L115.1 24.74L116.72 24.74L120.2 29.47L119.43 29.47L122.83 24.74L124.45 24.74L124.45 34.03L122.74 34.03L122.74 26.67L123.4 26.84L119.88 31.54L119.68 31.54L116.24 26.84L116.8 26.67L116.8 34.03L115.1 34.03Z" fill="#FFFFFF" fill-opacity="1.000000" fill-rule="nonzero"/>
	<path id="Vector" d="M104.1 34.03L104.1 24.74L105.72 24.74L109.2 29.47L108.43 29.47L111.83 24.74L113.45 24.74L113.45 34.03L111.74 34.03L111.74 26.67L112.4 26.84L108.88 31.54L108.68 31.54L105.24 26.84L105.8 26.67L105.8 34.03L104.1 34.03Z" fill="#FFFFFF" fill-opacity="1.000000" fill-rule="nonzero"/>
	<path id="Vector" d="M97.86 34.18C97.18 34.18 96.54 34.06 95.95 33.82C95.36 33.58 94.85 33.24 94.41 32.81C93.97 32.38 93.62 31.87 93.37 31.29C93.13 30.7 93.01 30.06 93.01 29.38C93.01 28.69 93.13 28.05 93.37 27.47C93.61 26.89 93.95 26.38 94.39 25.95C94.83 25.52 95.35 25.19 95.94 24.95C96.53 24.71 97.17 24.59 97.86 24.59C98.55 24.59 99.19 24.71 99.78 24.95C100.37 25.2 100.88 25.53 101.32 25.96C101.76 26.39 102.1 26.89 102.35 27.47C102.6 28.05 102.72 28.69 102.72 29.38C102.72 30.06 102.6 30.7 102.35 31.29C102.1 31.87 101.75 32.38 101.31 32.81C100.87 33.24 100.36 33.58 99.77 33.82C99.18 34.06 98.55 34.18 97.86 34.18ZM97.86 32.63C98.32 32.63 98.74 32.56 99.12 32.4C99.5 32.23 99.83 32 100.12 31.71C100.41 31.42 100.63 31.08 100.78 30.68C100.93 30.28 101.01 29.85 101.01 29.38C101.01 28.92 100.93 28.49 100.78 28.1C100.63 27.7 100.41 27.35 100.12 27.06C99.83 26.76 99.5 26.53 99.12 26.38C98.74 26.22 98.32 26.14 97.86 26.14C97.41 26.14 96.99 26.22 96.61 26.38C96.23 26.53 95.89 26.76 95.6 27.06C95.32 27.35 95.1 27.7 94.94 28.1C94.78 28.49 94.71 28.92 94.71 29.38C94.71 29.85 94.78 30.28 94.94 30.68C95.1 31.08 95.32 31.42 95.6 31.71C95.89 32 96.23 32.23 96.61 32.4C96.99 32.56 97.41 32.63 97.86 32.63Z" fill="#FFFFFF" fill-opacity="1.000000" fill-rule="nonzero"/>
	<path id="Vector" d="M85.33 34.03L85.33 24.74L87.02 24.74L87.02 29.58L86.56 29.42L90.51 24.74L92.64 24.74L88.94 29.13L89.04 27.93L92.75 34.03L90.76 34.03L88.27 29.94L87.02 31.42L87.02 34.03L85.33 34.03Z" fill="#FFFFFF" fill-opacity="1.000000" fill-rule="nonzero"/>
	<path id="Vector" d="M161.19 12.99L164.39 3.7L166.58 3.7L169.79 12.99L167.94 12.99L167.28 11L163.69 11L163.02 12.99L161.19 12.99ZM164.18 9.5L166.8 9.5L165.25 4.87L165.72 4.87L164.18 9.5Z" fill="#FFFFFF" fill-opacity="1.000000" fill-rule="nonzero"/>
	<path id="Vector" d="M157.09 12.99L157.09 8.88L153.96 3.7L155.89 3.7L158.28 7.74L157.6 7.74L159.98 3.7L161.91 3.7L158.8 8.86L158.8 12.99L157.09 12.99Z" fill="#FFFFFF" fill-opacity="1.000000" fill-rule="nonzero"/>
	<path id="Vector" d="M151.36 12.99L151.36 3.7L153.06 3.7L153.06 12.99L151.36 12.99ZM151.36 2.49L151.36 0.77L153.07 0.77L153.07 2.49L151.36 2.49Z" fill="#FFFFFF" fill-opacity="1.000000" fill-rule="nonzero"/>
	<path id="Vector" d="M146.73 13.14C146.14 13.14 145.59 13.03 145.09 12.82C144.59 12.6 144.16 12.3 143.79 11.92C143.43 11.53 143.17 11.07 143 10.56L144.41 9.95C144.64 10.48 144.96 10.9 145.39 11.21C145.81 11.51 146.29 11.66 146.82 11.66C147.12 11.66 147.38 11.61 147.59 11.52C147.82 11.42 147.99 11.29 148.1 11.12C148.23 10.95 148.29 10.75 148.29 10.52C148.29 10.25 148.21 10.02 148.04 9.85C147.88 9.67 147.64 9.52 147.32 9.42L145.53 8.85C144.81 8.63 144.27 8.29 143.9 7.84C143.54 7.39 143.35 6.86 143.35 6.26C143.35 5.73 143.48 5.26 143.74 4.85C144.01 4.44 144.37 4.13 144.84 3.9C145.31 3.67 145.85 3.55 146.46 3.55C147.01 3.55 147.53 3.65 147.99 3.85C148.46 4.04 148.85 4.31 149.19 4.66C149.53 5 149.78 5.41 149.95 5.87L148.55 6.49C148.37 6.03 148.09 5.67 147.73 5.42C147.36 5.16 146.94 5.04 146.46 5.04C146.17 5.04 145.92 5.09 145.71 5.19C145.49 5.28 145.32 5.41 145.2 5.58C145.08 5.75 145.02 5.95 145.02 6.18C145.02 6.44 145.11 6.67 145.27 6.87C145.44 7.06 145.69 7.21 146.03 7.32L147.74 7.85C148.48 8.09 149.03 8.43 149.4 8.85C149.77 9.27 149.96 9.8 149.96 10.42C149.96 10.95 149.82 11.42 149.55 11.83C149.27 12.24 148.9 12.56 148.41 12.79C147.93 13.02 147.37 13.14 146.73 13.14Z" fill="#FFFFFF" fill-opacity="1.000000" fill-rule="nonzero"/>
	<path id="Vector" d="M134.03 12.99L137.23 3.7L139.43 3.7L142.63 12.99L140.78 12.99L140.12 11L136.53 11L135.86 12.99L134.03 12.99ZM137.02 9.5L139.64 9.5L138.09 4.87L138.57 4.87L137.02 9.5Z" fill="#FFFFFF" fill-opacity="1.000000" fill-rule="nonzero"/>
	<path id="Vector" d="M123.79 12.99L123.79 3.7L125.41 3.7L128.89 8.43L128.11 8.43L131.52 3.7L133.14 3.7L133.14 12.99L131.43 12.99L131.43 5.63L132.09 5.8L128.56 10.5L128.36 10.5L124.92 5.8L125.48 5.63L125.48 12.99L123.79 12.99Z" fill="#FFFFFF" fill-opacity="1.000000" fill-rule="nonzero"/>
	<path id="Vector" d="M115.67 12.99L115.67 3.7L119.13 3.7C119.76 3.7 120.31 3.82 120.8 4.05C121.29 4.28 121.67 4.61 121.94 5.05C122.22 5.48 122.35 6.01 122.35 6.63C122.35 7.27 122.2 7.82 121.89 8.27C121.59 8.71 121.19 9.05 120.67 9.26L122.8 12.99L120.88 12.99L118.6 8.91L119.7 9.56L117.37 9.56L117.37 12.99L115.67 12.99ZM117.37 8.07L119.15 8.07C119.46 8.07 119.72 8.01 119.95 7.89C120.17 7.77 120.35 7.6 120.47 7.38C120.6 7.16 120.66 6.91 120.66 6.63C120.66 6.34 120.6 6.09 120.47 5.88C120.35 5.67 120.17 5.5 119.95 5.39C119.72 5.26 119.46 5.2 119.15 5.2L117.37 5.2L117.37 8.07Z" fill="#FFFFFF" fill-opacity="1.000000" fill-rule="nonzero"/>
	<path id="Vector" d="M109.43 13.14C108.75 13.14 108.11 13.02 107.52 12.78C106.93 12.54 106.42 12.2 105.98 11.77C105.54 11.34 105.19 10.83 104.94 10.25C104.7 9.66 104.58 9.02 104.58 8.34C104.58 7.65 104.7 7.01 104.94 6.43C105.18 5.85 105.52 5.34 105.96 4.91C106.4 4.48 106.92 4.15 107.51 3.91C108.1 3.67 108.74 3.55 109.43 3.55C110.12 3.55 110.76 3.67 111.35 3.91C111.94 4.15 112.45 4.49 112.89 4.92C113.33 5.35 113.68 5.85 113.92 6.43C114.17 7.01 114.29 7.65 114.29 8.34C114.29 9.02 114.17 9.66 113.92 10.25C113.67 10.83 113.32 11.34 112.88 11.77C112.44 12.2 111.93 12.54 111.34 12.78C110.75 13.02 110.12 13.14 109.43 13.14ZM109.43 11.59C109.89 11.59 110.31 11.51 110.69 11.36C111.07 11.19 111.4 10.96 111.69 10.67C111.98 10.38 112.2 10.04 112.35 9.64C112.5 9.24 112.58 8.81 112.58 8.34C112.58 7.87 112.5 7.45 112.35 7.06C112.2 6.66 111.98 6.31 111.69 6.02C111.4 5.72 111.07 5.49 110.69 5.33C110.31 5.18 109.89 5.1 109.43 5.1C108.98 5.1 108.56 5.18 108.18 5.33C107.8 5.49 107.46 5.72 107.17 6.02C106.89 6.31 106.67 6.66 106.51 7.06C106.35 7.45 106.28 7.87 106.28 8.34C106.28 8.81 106.35 9.24 106.51 9.64C106.67 10.04 106.89 10.38 107.17 10.67C107.46 10.96 107.8 11.19 108.18 11.36C108.56 11.51 108.98 11.59 109.43 11.59Z" fill="#FFFFFF" fill-opacity="1.000000" fill-rule="nonzero"/>
	<path id="Vector" d="M97.8 12.99L97.8 3.7L103.99 3.7L103.99 5.2L99.49 5.2L99.49 7.77L103.43 7.77L103.43 9.26L99.49 9.26L99.49 12.99L97.8 12.99Z" fill="#FFFFFF" fill-opacity="1.000000" fill-rule="nonzero"/>
	<path id="Vector" d="M88.68 12.99L88.68 3.7L90 3.7L95.11 10.58L94.43 10.72L94.43 3.7L96.12 3.7L96.12 12.99L94.79 12.99L89.75 6.06L90.38 5.92L90.38 12.99L88.68 12.99Z" fill="#FFFFFF" fill-opacity="1.000000" fill-rule="nonzero"/>
	<path id="Vector" d="M85.33 12.99L85.33 3.7L87.02 3.7L87.02 12.99L85.33 12.99ZM85.33 2.49L85.33 0.77L87.03 0.77L87.03 2.49L85.33 2.49Z" fill="#FFFFFF" fill-opacity="1.000000" fill-rule="nonzero"/>
</svg>
